<svg width="35" height="35" viewBox="0 0 35 35" fill="none" xmlns="http://www.w3.org/2000/svg">
<g clip-path="url(#clip0_771_590)">
<path d="M2.27516 13.8967L8.25695 7.32304C9.44059 6.1394 11.3688 6.13783 12.5635 7.33258C12.9421 7.71119 13.1999 8.1646 13.3335 8.64829C14.5235 7.7367 16.2401 7.82738 17.3363 8.92354C17.7012 9.2887 17.9668 9.74102 18.1079 10.2376C19.2978 9.32923 21.0145 9.41827 22.109 10.5144C22.4797 10.8851 22.7342 11.3274 22.8726 11.7983L25.6917 8.97917C26.8754 7.79554 28.8036 7.79397 29.9983 8.98872C31.1835 10.1724 31.1835 12.1005 29.9983 13.2857L19.1674 24.1166L25.5915 25.1252C27.3272 25.3734 28.6365 26.8816 28.6365 28.6364C28.6365 29.9521 27.5659 31.0228 26.2501 31.0228H11.2495C8.91238 31.0228 6.71536 30.1127 5.06243 28.4598L2.55995 25.9573C0.908588 24.3075 0.000202179 22.1121 0.000202179 19.7782C0.000202179 17.5987 0.808361 15.5098 2.27516 13.8967ZM3.68475 24.8325L6.18723 27.335C7.53948 28.6873 9.33723 29.4318 11.2495 29.4318H26.2502C26.6893 29.4318 27.0457 29.0754 27.0457 28.6363C27.0457 27.669 26.3235 26.837 25.3546 26.6986L17.3761 25.4449C17.0802 25.3988 16.8368 25.1904 16.7429 24.9056C16.6507 24.6225 16.7254 24.309 16.9371 24.0975L28.8736 12.1609C29.4383 11.5962 29.4383 10.6766 28.8656 10.1023C28.5936 9.83108 28.2251 9.67886 27.841 9.67913C27.4703 9.67913 27.0997 9.82074 26.8165 10.1039L18.8571 18.0632C18.5469 18.3735 18.0425 18.3735 17.7323 18.0632C17.578 17.9073 17.5 17.7037 17.5 17.5001C17.5 17.2964 17.5779 17.0928 17.7339 16.9369L20.9841 13.6867C21.5489 13.1219 21.5489 12.2039 20.9746 11.6296C20.4114 11.0664 19.4902 11.0664 18.9271 11.6296L15.6753 14.8814C15.365 15.1916 14.8607 15.1916 14.5505 14.8814C14.4017 14.7317 14.3182 14.5293 14.3182 14.3182C14.3182 14.1146 14.3961 13.911 14.552 13.755L16.2114 12.0957C16.7761 11.5309 16.7761 10.6129 16.2018 10.0386C15.6386 9.47547 14.7175 9.47547 14.1543 10.0386L12.4871 11.7059C12.4839 11.7075 12.4855 11.7075 12.4855 11.7075L12.4839 11.709L12.4824 11.7106L12.4808 11.7122H12.4793C12.4777 11.7122 12.4777 11.7137 12.4777 11.7137C12.1659 12.0096 11.6727 12.0033 11.3688 11.6978C11.0586 11.3876 11.0586 10.8833 11.3688 10.573L11.4372 10.5047C11.7108 10.231 11.862 9.86668 11.862 9.48009C11.862 9.0935 11.7125 8.73077 11.4293 8.44761C10.8629 7.88443 9.9465 7.886 9.40718 8.42054L3.45081 14.9672C2.25293 16.2862 1.59109 17.9948 1.59109 19.7782C1.59109 21.6873 2.33407 23.4819 3.68475 24.8325Z" fill="#4F4F4F"/>
<path d="M21.3246 8.19803C22.4827 5.63507 25.0409 3.97729 27.8409 3.97729C31.788 3.97729 35 7.18934 35 11.1364C35 13.9364 33.3423 16.4946 30.7793 17.6544C30.6728 17.7021 30.5614 17.7244 30.4516 17.7244C30.1493 17.7244 29.8598 17.5494 29.7261 17.2567C29.5463 16.8558 29.7246 16.3848 30.1238 16.2035C32.1188 15.3014 33.409 13.3128 33.409 11.1364C33.409 8.06596 30.9113 5.56818 27.8408 5.56818C25.6645 5.56818 23.6758 6.85838 22.7738 8.85339C22.594 9.25429 22.1215 9.43409 21.7222 9.25109C21.3214 9.0698 21.1432 8.59894 21.3246 8.19803Z" fill="#4F4F4F"/>
</g>
<defs>
<clipPath id="clip0_771_590">
<rect width="35" height="35" fill="white" transform="matrix(-1 0 0 1 35 0)"/>
</clipPath>
</defs>
</svg>
