<svg width="18" height="19" fill="none" xmlns="http://www.w3.org/2000/svg"><g clip-path="url(#clip0_1102_3436)" fill="#A80055"><path d="M18 10.1h-3.4V8.9H18v1.2zM9.6.5v3.4H8.3V.5h1.3zm-.7 13.9c-2.7 0-4.8-2.2-4.8-4.8 0-2.7 2.2-4.8 4.9-4.8s4.8 2.2 4.8 4.9c-.1 2.6-2.3 4.7-4.9 4.7zM3.3 8.9v1.3H0V8.9h3.3zM2.1 3.6l.8-.8c.8.8 1.5 1.6 2.3 2.4-.1.2-.5.5-.7.7-.8-.7-1.6-1.5-2.4-2.3zm11.2 2.3c-.2-.2-.5-.5-.7-.8.8-.8 1.5-1.5 2.3-2.4.2.3.5.6.7.9-.7.8-1.5 1.5-2.3 2.3zm-8.7 7.3l.7.7c-.8.8-1.5 1.6-2.3 2.4-.2-.3-.5-.6-.8-.8.8-.7 1.6-1.5 2.4-2.3zm7.9.7l.8-.8c.8.8 1.6 1.6 2.4 2.3-.3.3-.6.5-.9.8l-2.3-2.3zm-4.2 1.3h1.2v3.3H8.3v-3.3z"/></g><defs><clipPath id="clip0_1102_3436"><path fill="#fff" transform="translate(0 .5)" d="M0 0h18v18H0z"/></clipPath></defs></svg>