<svg width="80" height="80" viewBox="0 0 80 80" fill="none" xmlns="http://www.w3.org/2000/svg">
<path d="M54.3603 44.9648L53.7565 43.1897C55.7659 42.5061 57.4576 41.7814 58.6486 41.0938C60.5245 40.0108 61.2943 37.9256 60.4787 36.1359C60.0115 35.1106 59.5061 34.2073 59.0172 33.3339C57.2473 30.1713 55.5756 27.1847 55.8945 19.3131C55.884 10.5577 48.7579 3.4375 40 3.4375C31.242 3.4375 24.1156 10.5577 24.1051 19.3131C24.4242 27.1847 22.7525 30.1713 20.9826 33.3339C20.4939 34.2073 19.9884 35.1106 19.5212 36.1361C18.7058 37.9259 19.4756 40.0109 21.3514 41.0939C22.504 41.7594 24.134 42.463 26.065 43.1287L25.4539 44.9013C23.4115 44.1972 21.6687 43.4422 20.414 42.7178C17.6836 41.1414 16.5906 38.0464 17.8151 35.3587C18.3145 34.2627 18.8392 33.3252 19.3465 32.4184C21.0558 29.3642 22.5318 26.7262 22.2309 19.3705C22.2304 19.3577 22.2302 19.345 22.2301 19.3322C22.2303 9.53391 30.2017 1.5625 40 1.5625C49.7981 1.5625 57.7695 9.53391 57.7695 19.3319C57.7695 19.3447 57.7693 19.3575 57.7687 19.3702C57.4679 26.7261 58.944 29.3639 60.6533 32.4181C61.1608 33.3248 61.6853 34.2625 62.1848 35.3584C63.4093 38.0462 62.3164 41.1411 59.5859 42.7177C58.2908 43.4655 56.4837 44.2425 54.3603 44.9648ZM40 51.4906C36.7781 51.4906 33.5562 51.1034 30.3568 50.3294L30.7978 48.5069C36.9039 49.9845 43.0961 49.9845 49.2022 48.5069L49.6431 50.3294C46.4437 51.1034 43.2218 51.4906 40 51.4906Z" fill="#2E2D2E"/>
<path d="M39.9999 38.8358C32.9902 38.8358 27.2874 33.133 27.2874 26.1233V20.8187C27.2874 20.5701 27.3862 20.3316 27.562 20.1558C27.7378 19.98 27.9763 19.8812 28.2249 19.8812C32.9562 19.8812 39.5501 17.7714 42.9987 13.7389C43.0827 13.6406 43.1861 13.5608 43.3025 13.5045C43.4188 13.4481 43.5455 13.4164 43.6747 13.4114C43.8039 13.4064 43.9327 13.4281 44.0531 13.4752C44.1734 13.5224 44.2827 13.5939 44.3742 13.6853C44.7838 14.095 45.2043 14.5391 45.6496 15.0092C47.5668 17.0337 49.7396 19.3283 52.0082 19.9106C52.2098 19.9624 52.3883 20.0797 52.5159 20.2441C52.6434 20.4085 52.7126 20.6107 52.7126 20.8187V26.1233C52.7124 33.133 47.0096 38.8358 39.9999 38.8358ZM29.1623 21.7323V26.1233C29.1623 32.099 34.024 36.9608 39.9998 36.9608C45.9756 36.9608 50.8373 32.099 50.8373 26.1233V21.5045C48.3327 20.57 46.107 18.2194 44.2877 16.2984C44.1022 16.1023 43.9163 15.9066 43.7299 15.7112C39.9007 19.5905 33.8009 21.502 29.1623 21.7323ZM51.1182 61.4044L49.6965 60.1819L51.5096 58.0731L49.3021 55.8656C49.2035 55.767 49.1281 55.6477 49.0815 55.5163C49.0348 55.3849 49.0181 55.2447 49.0325 55.106C49.0469 54.9673 49.0921 54.8335 49.1647 54.7145C49.2374 54.5955 49.3357 54.4942 49.4524 54.418L56.3546 49.9092L52.2323 44.9342L45.7277 61.1423L43.9876 60.4441L50.9702 43.0445L51.9545 43.4394L52.8285 42.7151L58.4685 49.5215C58.5528 49.6232 58.6146 49.7416 58.65 49.8688C58.6853 49.9961 58.6934 50.1294 58.6736 50.26C58.6539 50.3905 58.6068 50.5155 58.5354 50.6266C58.464 50.7377 58.3699 50.8325 58.2593 50.9047L51.4445 55.3564L53.4504 57.3623C53.6176 57.5295 53.7154 57.7537 53.7243 57.99C53.7332 58.2262 53.6525 58.4571 53.4984 58.6364L51.1182 61.4044ZM28.8817 61.4044L26.5017 58.6362C26.3475 58.457 26.2668 58.2261 26.2757 57.9898C26.2846 57.7535 26.3824 57.5294 26.5496 57.3622L28.5554 55.3562L21.7406 50.9045C21.63 50.8323 21.536 50.7375 21.4647 50.6264C21.3933 50.5153 21.3462 50.3903 21.3265 50.2598C21.3067 50.1292 21.3148 49.9959 21.3501 49.8687C21.3854 49.7415 21.4471 49.6231 21.5313 49.5214L27.1621 42.7261L27.994 43.4153L29.0142 43.0059L36.0123 60.4441L34.2721 61.1423L27.7676 44.9342L23.6452 49.9092L30.5474 54.418C30.6642 54.4942 30.7624 54.5955 30.835 54.7146C30.9076 54.8336 30.9528 54.9673 30.9672 55.106C30.9816 55.2447 30.9649 55.3848 30.9183 55.5162C30.8717 55.6476 30.7963 55.767 30.6977 55.8656L28.4904 58.0731L30.3035 60.1819L28.8817 61.4044Z" fill="#2E2D2E"/>
<path d="M60.7478 77.5873L58.881 77.4128L60.1239 64.1219C60.1825 63.4959 59.985 62.8989 59.5678 62.4409C59.1507 61.9828 58.5747 61.7306 57.946 61.7306H22.0539C21.4252 61.7306 20.8492 61.9828 20.4321 62.4409C20.015 62.8989 19.8174 63.4959 19.876 64.1219L21.1189 77.4128L19.2521 77.5873L18.0091 64.2964C17.9024 63.1553 18.2802 62.0189 19.0458 61.1783C19.8114 60.3378 20.9078 59.8556 22.0538 59.8556H57.9458C59.0917 59.8556 60.1883 60.3378 60.9538 61.1783C61.7194 62.0189 62.0972 63.1553 61.9905 64.2964L60.7478 77.5873Z" fill="#2E2D2E"/>
<path d="M40 75.3156C37.6237 75.3156 35.6904 73.3823 35.6904 71.0061C35.6904 68.6298 37.6237 66.6966 40 66.6966C42.3762 66.6966 44.3095 68.6298 44.3095 71.0061C44.3095 73.3823 42.3762 75.3156 40 75.3156ZM40 68.5714C38.6576 68.5714 37.5654 69.6634 37.5654 71.0059C37.5654 72.3484 38.6576 73.4406 40 73.4406C41.3423 73.4406 42.4345 72.3486 42.4345 71.0061C42.4345 69.6636 41.3425 68.5714 40 68.5714Z" fill="#A80055"/>
<path d="M40 35.3119C38.6058 35.3119 37.4714 34.1775 37.4714 32.7831C37.4714 31.3887 38.6058 30.2544 40 30.2544C41.3942 30.2544 42.5286 31.3887 42.5286 32.7831C42.5286 34.1775 41.3944 35.3119 40 35.3119ZM40 32.1294C39.6396 32.1294 39.3464 32.4226 39.3464 32.7831C39.3464 33.1436 39.6396 33.4369 40 33.4369C40.3605 33.4369 40.6536 33.1436 40.6536 32.7831C40.6536 32.4226 40.3605 32.1294 40 32.1294Z" fill="#2E2D2E"/>
<path d="M41.6737 33.7216C41.6408 33.7216 41.6087 33.7214 41.5775 33.7209L41.605 31.8461C43.2903 31.8775 48.609 31.0183 50.8894 26.9175L52.5279 27.8288C49.8297 32.6809 43.8739 33.7216 41.6737 33.7216ZM69.7505 78.4375H10.2495C10.0009 78.4375 9.76241 78.3387 9.5866 78.1629C9.41078 77.9871 9.31201 77.7487 9.31201 77.5V59.1505C9.31201 53.7469 12.3834 49.0358 17.3275 46.8555L27.0101 42.5855C29.505 41.4853 31.1633 39.5031 31.8054 36.8531L32.1565 35.4052L33.9787 35.8469L33.6276 37.2949C32.8537 40.4875 30.7723 42.9756 27.7665 44.3009L18.0839 48.571C13.7651 50.4753 11.1869 54.4303 11.1869 59.1503V76.5625H68.8126V59.1505C68.8126 54.4305 66.2344 50.4755 61.9156 48.5711L52.2329 44.3011C49.2273 42.9758 47.1458 40.4875 46.3719 37.295L46.0208 35.847L47.8429 35.4053L48.194 36.8533C48.8364 39.5033 50.4947 41.4855 52.9895 42.5856L62.6722 46.8556C67.6162 49.036 70.6876 53.7472 70.6876 59.1506V77.5C70.6877 77.6231 70.6635 77.745 70.6164 77.8588C70.5693 77.9725 70.5003 78.0759 70.4132 78.1629C70.3262 78.25 70.2229 78.319 70.1092 78.3661C69.9954 78.4133 69.8736 78.4375 69.7505 78.4375Z" fill="#2E2D2E"/>
</svg>
