<svg width="80" height="80" viewBox="0 0 80 80" fill="none" xmlns="http://www.w3.org/2000/svg">
<path d="M54.841 78.2812H15.0396C10.6777 78.2812 7.12915 74.7326 7.12915 70.3708V16.0269C7.12915 11.665 10.6777 8.11639 15.0396 8.11639H25.2481V9.67889H15.0396C11.5393 9.67889 8.69165 12.5267 8.69165 16.0269V70.3708C8.69165 73.8711 11.5395 76.7187 15.0396 76.7187H54.841C58.3413 76.7187 61.189 73.8709 61.189 70.3708V43.5591H62.7515V70.3706C62.7515 74.7325 59.2029 78.2812 54.841 78.2812ZM62.7515 34.1309H61.189V16.0269C61.189 12.5266 58.3412 9.67889 54.841 9.67889H44.6324V8.11639H54.841C59.2029 8.11639 62.7515 11.665 62.7515 16.0269V34.1309Z" fill="#2E2D2E"/>
<path d="M54.8411 74.4811H15.0397C12.7731 74.4811 10.9292 72.6372 10.9292 70.3706V16.0269C10.9292 13.7603 12.7731 11.9164 15.0397 11.9164H25.2481V13.4789H15.0397C13.6347 13.4789 12.4917 14.6219 12.4917 16.0269V70.3708C12.4917 71.7758 13.6347 72.9188 15.0397 72.9188H54.8411C56.2461 72.9188 57.389 71.7758 57.389 70.3708V50.1411H58.9515V70.3708C58.9514 72.6372 57.1075 74.4811 54.8411 74.4811ZM58.9514 40.713H57.3889V16.0269C57.3889 14.6219 56.2459 13.4789 54.8409 13.4789H44.6323V11.9164H54.8409C57.1073 11.9164 58.9514 13.7603 58.9514 16.0269V40.713Z" fill="#2E2D2E"/>
<path d="M42.321 15.307H27.5595C25.819 15.307 24.4031 13.8911 24.4031 12.1508V9.44438C24.4031 7.70391 25.819 6.28813 27.5595 6.28813H29.6465C30.0257 3.70656 32.2551 1.71875 34.9403 1.71875C37.6253 1.71875 39.8548 3.70656 40.2339 6.28797H42.321C44.0615 6.28797 45.4773 7.70391 45.4773 9.44422V12.1506C45.4775 13.8912 44.0615 15.307 42.321 15.307ZM27.5595 7.85047C26.6806 7.85047 25.9656 8.56547 25.9656 9.44422V12.1506C25.9656 13.0295 26.6806 13.7444 27.5595 13.7444H42.321C43.2 13.7444 43.9148 13.0294 43.9148 12.1506V9.44438C43.9148 8.56547 43.1998 7.85063 42.321 7.85063H39.5095C39.3023 7.85063 39.1036 7.76831 38.9571 7.6218C38.8105 7.47529 38.7282 7.27658 38.7282 7.06938C38.7282 4.98062 37.029 3.28141 34.9403 3.28141C32.8515 3.28141 31.1521 4.98062 31.1521 7.06938C31.1521 7.27658 31.0698 7.47529 30.9233 7.6218C30.7768 7.76831 30.5781 7.85063 30.3709 7.85063L27.5595 7.85047Z" fill="#2E2D2E"/>
<path fill-rule="evenodd" clip-rule="evenodd" d="M34.9403 7.96483C35.638 7.96483 36.207 7.39593 36.207 6.69811C36.207 6.0003 35.638 5.4314 34.9403 5.4314C34.2426 5.4314 33.6736 6.00046 33.6736 6.69811C33.6736 7.39577 34.2426 7.96483 34.9403 7.96483Z" fill="#2E2D2E"/>
<path d="M42.4926 31.5486H31.8423C31.6351 31.5486 31.4364 31.4663 31.2899 31.3198C31.1434 31.1733 31.0611 30.9746 31.0611 30.7674C31.0611 30.5602 31.1434 30.3614 31.2899 30.2149C31.4364 30.0684 31.6351 29.9861 31.8423 29.9861H42.4926C42.6998 29.9861 42.8985 30.0684 43.0451 30.2149C43.1916 30.3614 43.2739 30.5602 43.2739 30.7674C43.2739 30.9746 43.1916 31.1733 43.0451 31.3198C42.8985 31.4663 42.6998 31.5486 42.4926 31.5486ZM53.1429 27.1284H31.8423C31.6351 27.1284 31.4364 27.0461 31.2899 26.8996C31.1434 26.7531 31.0611 26.5544 31.0611 26.3472C31.0611 26.14 31.1434 25.9413 31.2899 25.7948C31.4364 25.6483 31.6351 25.5659 31.8423 25.5659H53.1429C53.3501 25.5659 53.5489 25.6483 53.6954 25.7948C53.8419 25.9413 53.9242 26.14 53.9242 26.3472C53.9242 26.5544 53.8419 26.7531 53.6954 26.8996C53.5489 27.0461 53.3501 27.1284 53.1429 27.1284ZM42.4926 47.1042H31.8423C31.6351 47.1042 31.4364 47.0219 31.2899 46.8754C31.1434 46.7289 31.0611 46.5302 31.0611 46.323C31.0611 46.1158 31.1434 45.9171 31.2899 45.7706C31.4364 45.624 31.6351 45.5417 31.8423 45.5417H42.4926C42.6998 45.5417 42.8985 45.624 43.0451 45.7706C43.1916 45.9171 43.2739 46.1158 43.2739 46.323C43.2739 46.5302 43.1916 46.7289 43.0451 46.8754C42.8985 47.0219 42.6998 47.1042 42.4926 47.1042ZM53.1429 42.6839H31.8423C31.6351 42.6839 31.4364 42.6016 31.2899 42.4551C31.1434 42.3086 31.0611 42.1099 31.0611 41.9027C31.0611 41.6955 31.1434 41.4968 31.2899 41.3502C31.4364 41.2037 31.6351 41.1214 31.8423 41.1214H53.1429C53.3501 41.1214 53.5489 41.2037 53.6954 41.3502C53.8419 41.4968 53.9242 41.6955 53.9242 41.9027C53.9242 42.1099 53.8419 42.3086 53.6954 42.4551C53.5489 42.6016 53.3501 42.6839 53.1429 42.6839ZM22.6998 64.2224H18.3211C17.0172 64.2224 15.9565 63.1616 15.9565 61.8578V57.4791C15.9565 56.1752 17.0173 55.1145 18.3211 55.1145H22.6998C23.0119 55.1145 23.3156 55.1749 23.6026 55.2939C23.6978 55.333 23.7842 55.3904 23.8571 55.463C23.93 55.5355 23.9878 55.6217 24.0273 55.7167C24.0668 55.8116 24.0871 55.9135 24.0872 56.0163C24.0872 56.1191 24.0669 56.2209 24.0276 56.3159C23.9882 56.4109 23.9304 56.4972 23.8576 56.5698C23.7848 56.6424 23.6984 56.6999 23.6033 56.7391C23.5082 56.7782 23.4063 56.7982 23.3035 56.7979C23.2006 56.7976 23.0989 56.7769 23.004 56.7372C22.9076 56.6972 22.8042 56.6767 22.6998 56.6769H18.3211C18.1084 56.6771 17.9046 56.7617 17.7542 56.9121C17.6039 57.0624 17.5193 57.2663 17.519 57.4789V61.8577C17.5193 62.0703 17.6039 62.2742 17.7542 62.4245C17.9046 62.5749 18.1084 62.6595 18.3211 62.6597H22.6998C22.9124 62.6594 23.1163 62.5748 23.2666 62.4245C23.417 62.2741 23.5016 62.0703 23.5019 61.8577V61.5067C23.5019 61.2995 23.5842 61.1008 23.7307 60.9543C23.8772 60.8078 24.0759 60.7255 24.2831 60.7255C24.4903 60.7255 24.689 60.8078 24.8355 60.9543C24.982 61.1008 25.0644 61.2995 25.0644 61.5067V61.8577C25.0644 63.1616 24.0036 64.2224 22.6998 64.2224ZM22.6998 48.6669H18.3211C17.0172 48.6669 15.9565 47.6061 15.9565 46.3024V41.9234C15.9565 40.6195 17.0173 39.5589 18.3211 39.5589H22.6998C23.0119 39.5589 23.3156 39.6192 23.6026 39.7383C23.6978 39.7773 23.7842 39.8348 23.8571 39.9073C23.93 39.9799 23.9878 40.0661 24.0273 40.1611C24.0668 40.256 24.0871 40.3578 24.0872 40.4607C24.0872 40.5635 24.0669 40.6653 24.0276 40.7603C23.9882 40.8553 23.9304 40.9416 23.8576 41.0142C23.7848 41.0868 23.6984 41.1443 23.6033 41.1834C23.5082 41.2226 23.4063 41.2426 23.3035 41.2422C23.2006 41.2419 23.0989 41.2213 23.004 41.1816C22.9076 41.1416 22.8042 41.1211 22.6998 41.1213H18.3211C18.1084 41.1215 17.9046 41.2061 17.7542 41.3564C17.6039 41.5068 17.5193 41.7107 17.519 41.9233V46.302C17.5193 46.5147 17.6039 46.7185 17.7542 46.8689C17.9046 47.0192 18.1084 47.1038 18.3211 47.1041H22.6998C22.9124 47.1038 23.1163 47.0192 23.2666 46.8688C23.417 46.7185 23.5016 46.5147 23.5019 46.302V45.9511C23.5019 45.7439 23.5842 45.5452 23.7307 45.3987C23.8772 45.2522 24.0759 45.1699 24.2831 45.1699C24.4903 45.1699 24.689 45.2522 24.8355 45.3987C24.982 45.5452 25.0644 45.7439 25.0644 45.9511V46.302C25.0644 47.6061 24.0036 48.6669 22.6998 48.6669ZM22.6998 33.1113H18.3211C17.0172 33.1113 15.9565 32.0505 15.9565 30.7467V26.368C15.9565 25.0641 17.0173 24.0034 18.3211 24.0034H22.6998C23.0117 24.0034 23.3154 24.0639 23.6026 24.183C23.6978 24.222 23.7842 24.2795 23.8571 24.352C23.93 24.4246 23.9878 24.5108 24.0273 24.6058C24.0668 24.7007 24.0871 24.8025 24.0872 24.9053C24.0872 25.0082 24.0669 25.11 24.0276 25.205C23.9882 25.3 23.9304 25.3862 23.8576 25.4589C23.7848 25.5315 23.6984 25.589 23.6033 25.6281C23.5082 25.6673 23.4063 25.6873 23.3035 25.6869C23.2006 25.6866 23.0989 25.666 23.004 25.6263C22.9076 25.5863 22.8042 25.5658 22.6998 25.5659H18.3211C18.1084 25.5662 17.9046 25.6508 17.7542 25.8011C17.6039 25.9515 17.5193 26.1553 17.519 26.368V30.7467C17.5193 30.9594 17.6039 31.1632 17.7542 31.3136C17.9046 31.4639 18.1084 31.5485 18.3211 31.5488H22.6998C22.9124 31.5485 23.1163 31.4639 23.2666 31.3135C23.417 31.1632 23.5016 30.9594 23.5019 30.7467V30.3958C23.5019 30.1886 23.5842 29.9899 23.7307 29.8434C23.8772 29.6969 24.0759 29.6145 24.2831 29.6145C24.4903 29.6145 24.689 29.6969 24.8355 29.8434C24.982 29.9899 25.0644 30.1886 25.0644 30.3958V30.7467C25.0644 32.0505 24.0036 33.1113 22.6998 33.1113ZM42.4926 62.6597H31.8423C31.6351 62.6597 31.4364 62.5774 31.2899 62.4309C31.1434 62.2844 31.0611 62.0857 31.0611 61.8784C31.0611 61.6712 31.1434 61.4725 31.2899 61.326C31.4364 61.1795 31.6351 61.0972 31.8423 61.0972H42.4926C42.6998 61.0972 42.8985 61.1795 43.0451 61.326C43.1916 61.4725 43.2739 61.6712 43.2739 61.8784C43.2739 62.0857 43.1916 62.2844 43.0451 62.4309C42.8985 62.5774 42.6998 62.6597 42.4926 62.6597ZM45.3772 58.2395H31.8422C31.635 58.2395 31.4363 58.1572 31.2897 58.0107C31.1432 57.8642 31.0609 57.6655 31.0609 57.4583C31.0609 57.2511 31.1432 57.0524 31.2897 56.9059C31.4363 56.7594 31.635 56.677 31.8422 56.677H45.3772C45.5844 56.677 45.7831 56.7594 45.9296 56.9059C46.0761 57.0524 46.1584 57.2511 46.1584 57.4583C46.1584 57.6655 46.0761 57.8642 45.9296 58.0107C45.7831 58.1572 45.5844 58.2395 45.3772 58.2395Z" fill="#2E2D2E"/>
<path d="M20.8882 61.6872C20.7619 61.6871 20.6375 61.6565 20.5256 61.5979C20.4138 61.5393 20.3178 61.4544 20.2458 61.3506L18.3704 58.6416C18.2524 58.4712 18.207 58.261 18.2441 58.0571C18.2811 57.8533 18.3977 57.6725 18.568 57.5545C18.7384 57.4366 18.9486 57.3912 19.1525 57.4282C19.3563 57.4653 19.5371 57.5818 19.655 57.7522L21.0721 59.7991L25.9985 56.1617C26.081 56.0998 26.1749 56.0549 26.2748 56.0294C26.3747 56.004 26.4787 55.9986 26.5807 56.0136C26.6827 56.0285 26.7808 56.0635 26.8692 56.1166C26.9577 56.1696 27.0347 56.2396 27.096 56.3226C27.1572 56.4055 27.2014 56.4998 27.2261 56.5999C27.2507 56.7001 27.2553 56.8041 27.2395 56.906C27.2237 57.0079 27.188 57.1056 27.1342 57.1937C27.0805 57.2817 27.0099 57.3582 26.9264 57.4188L21.3521 61.5344C21.2178 61.6337 21.0552 61.6873 20.8882 61.6872ZM20.8882 46.1317C20.7619 46.1317 20.6375 46.101 20.5256 46.0424C20.4138 45.9838 20.3178 45.899 20.2458 45.7952L18.3704 43.0861C18.2524 42.9157 18.207 42.7055 18.2441 42.5016C18.2811 42.2978 18.3977 42.117 18.568 41.9991C18.7384 41.8811 18.9486 41.8357 19.1525 41.8728C19.3563 41.9098 19.5371 42.0264 19.655 42.1967L21.0721 44.2436L25.9985 40.6063C26.081 40.5444 26.1749 40.4994 26.2748 40.474C26.3747 40.4485 26.4787 40.4432 26.5807 40.4581C26.6827 40.4731 26.7808 40.5081 26.8692 40.5611C26.9577 40.6141 27.0347 40.6841 27.096 40.7671C27.1572 40.8501 27.2014 40.9443 27.2261 41.0444C27.2507 41.1446 27.2553 41.2486 27.2395 41.3505C27.2237 41.4524 27.188 41.5502 27.1342 41.6382C27.0805 41.7262 27.0099 41.8027 26.9264 41.8633L21.3521 45.9791C21.2177 46.0782 21.0551 46.1317 20.8882 46.1317ZM20.8882 30.5761C20.7619 30.576 20.6375 30.5454 20.5256 30.4868C20.4138 30.4282 20.3178 30.3433 20.2458 30.2395L18.3704 27.5305C18.2524 27.3601 18.207 27.1499 18.2441 26.946C18.2811 26.7422 18.3977 26.5614 18.568 26.4434C18.7384 26.3255 18.9486 26.2801 19.1525 26.3171C19.3563 26.3542 19.5371 26.4707 19.655 26.6411L21.0721 28.688L25.9985 25.0506C26.081 24.9887 26.1749 24.9438 26.2748 24.9183C26.3747 24.8929 26.4787 24.8875 26.5807 24.9025C26.6827 24.9174 26.7808 24.9524 26.8692 25.0055C26.9577 25.0585 27.0347 25.1285 27.096 25.2115C27.1572 25.2944 27.2014 25.3887 27.2261 25.4888C27.2507 25.589 27.2553 25.693 27.2395 25.7949C27.2237 25.8968 27.188 25.9946 27.1342 26.0826C27.0805 26.1706 27.0099 26.2471 26.9264 26.3077L21.3521 30.4233C21.2178 30.5226 21.0552 30.5761 20.8882 30.5761Z" fill="#A80055"/>
<path d="M47.8201 64.1347C47.7108 64.1347 47.6026 64.1117 47.5027 64.0673C47.4028 64.0229 47.3133 63.958 47.24 63.8768C47.1668 63.7956 47.1114 63.6999 47.0774 63.596C47.0435 63.492 47.0317 63.3821 47.0429 63.2733L47.6354 57.533C47.6468 57.4236 47.681 57.3178 47.7361 57.2225L67.0151 23.8302C67.4329 23.1064 68.11 22.5881 68.9215 22.3706C69.7329 22.1531 70.5784 22.2636 71.3022 22.6814C72.8008 23.5467 73.3161 25.4699 72.4509 26.9684L53.1718 60.3608C53.1168 60.456 53.0424 60.5385 52.9534 60.6031L48.2784 63.9864C48.1451 64.0828 47.9847 64.1347 47.8201 64.1347ZM49.1726 57.8592L48.7765 61.6969L51.9018 59.435L71.0976 26.187C71.532 25.4347 71.2733 24.4689 70.5208 24.0345C70.3417 23.931 70.1439 23.864 69.9388 23.8375C69.7337 23.8109 69.5254 23.8253 69.3259 23.8799C68.9176 23.9892 68.5775 24.2491 68.3684 24.6113L49.1726 57.8592Z" fill="#2E2D2E"/>
<path d="M48.0208 58.2909L48.802 56.9378L52.8843 59.2949L52.1031 60.648L48.0208 58.2909ZM64.8943 29.065L65.6756 27.7119L69.7579 30.0689L68.9767 31.422L64.8943 29.065Z" fill="#2E2D2E"/>
</svg>
