<svg width="80" height="80" viewBox="0 0 80 80" fill="none" xmlns="http://www.w3.org/2000/svg">
<mask id="mask0_249_1453" style="mask-type:luminance" maskUnits="userSpaceOnUse" x="0" y="0" width="80" height="80">
<path d="M0 -7.62939e-06H79.9998V79.9998H0V-7.62939e-06Z" fill="white"/>
</mask>
<g mask="url(#mask0_249_1453)">
<path d="M15.8725 58.1517L15.8727 58.1518C15.8965 58.1756 15.9153 58.2038 15.9282 58.2349C15.9411 58.2659 15.9477 58.2992 15.9477 58.3328C15.9477 58.3665 15.9411 58.3998 15.9282 58.4308C15.9153 58.4619 15.8965 58.4901 15.8727 58.5139L15.8725 58.514C15.8244 58.5621 15.7592 58.5891 15.6913 58.5891C15.6233 58.5891 15.5581 58.5621 15.5101 58.5141C15.5101 58.5141 15.51 58.5141 15.51 58.514M15.8725 58.1517L14.9444 57.5859C14.7463 57.784 14.635 58.0527 14.635 58.3328C14.635 58.613 14.7463 58.8816 14.9444 59.0797L15.51 58.514M15.8725 58.1517C15.8244 58.1036 15.7592 58.0766 15.6913 58.0766C15.6233 58.0766 15.5581 58.1036 15.5101 58.1516C15.5101 58.1516 15.51 58.1516 15.51 58.1517M15.8725 58.1517H15.51M15.51 58.514C15.462 58.466 15.435 58.4008 15.435 58.3328C15.435 58.2649 15.462 58.1997 15.51 58.1517M15.51 58.514L15.51 58.1517" fill="#2E2D2E" stroke="#2E2D2E" stroke-width="1.6"/>
<path d="M21.8484 64.127L21.8485 64.1272C21.8966 64.1753 21.9236 64.2405 21.9236 64.3084C21.9236 64.3764 21.8966 64.4416 21.8486 64.4896C21.8486 64.4896 21.8485 64.4897 21.8485 64.4897M21.8484 64.127L20.9204 65.0553C21.1185 65.2534 21.3872 65.3647 21.6673 65.3647C21.9475 65.3647 22.2161 65.2534 22.4142 65.0553L21.8485 64.4897M21.8484 64.127C21.8246 64.1032 21.7964 64.0844 21.7653 64.0715C21.7342 64.0586 21.701 64.052 21.6673 64.052C21.6337 64.052 21.6004 64.0586 21.5694 64.0715C21.5383 64.0844 21.5101 64.1032 21.4863 64.127L21.4862 64.1272C21.4381 64.1753 21.4111 64.2405 21.4111 64.3084C21.4111 64.3764 21.4381 64.4416 21.4861 64.4896C21.4861 64.4896 21.4861 64.4897 21.4862 64.4897M21.8484 64.127L21.4862 64.4897M21.8485 64.4897C21.8005 64.5377 21.7353 64.5647 21.6673 64.5647C21.5994 64.5647 21.5342 64.5377 21.4862 64.4897M21.8485 64.4897L21.4862 64.4897" fill="#2E2D2E" stroke="#2E2D2E" stroke-width="1.6"/>
<path d="M44.4816 29.5428L41.4939 32.5306" stroke="#2E2D2E" stroke-width="1.6" stroke-miterlimit="10" stroke-linecap="round" stroke-linejoin="round"/>
<path d="M47.4695 38.5062L50.4572 35.5185" stroke="#2E2D2E" stroke-width="1.6" stroke-miterlimit="10" stroke-linecap="round" stroke-linejoin="round"/>
<path d="M26.0942 59.8813L38.506 47.4695" stroke="#2E2D2E" stroke-width="1.6" stroke-miterlimit="10" stroke-linecap="round" stroke-linejoin="round"/>
<path d="M32.5302 41.4938L20.1184 53.9056" stroke="#2E2D2E" stroke-width="1.6" stroke-miterlimit="10" stroke-linecap="round" stroke-linejoin="round"/>
<path d="M11.9568 56.0921C15.2571 52.7918 20.6076 52.7918 23.9079 56.0921C27.208 59.3924 27.208 64.7429 23.9079 68.0432L19.4262 72.5249C16.1261 75.825 10.7752 75.825 7.4751 72.5249C4.17497 69.2246 4.17497 63.8739 7.4751 60.5737L11.9568 56.0921Z" stroke="#2E2D2E" stroke-width="1.6" stroke-miterlimit="10" stroke-linecap="round" stroke-linejoin="round"/>
<path d="M16.4387 63.5615C18.0888 65.2117 18.0888 67.8869 16.4387 69.537C14.7885 71.1871 12.1133 71.1871 10.4632 69.537C8.81305 67.8869 8.81305 65.2117 10.4632 63.5615C12.1133 61.9114 14.7885 61.9114 16.4387 63.5615Z" stroke="#A80055" stroke-width="1.6" stroke-miterlimit="10" stroke-linecap="round" stroke-linejoin="round"/>
<path d="M54.9389 34.0244L45.9756 25.0611" stroke="#2E2D2E" stroke-width="1.6" stroke-miterlimit="10" stroke-linecap="round" stroke-linejoin="round"/>
<path d="M57.9265 31.0367L48.9632 22.0734L44.4815 26.5552C43.6566 27.3801 43.6566 28.7177 44.4815 29.5429L50.4571 35.5184C51.2822 36.3435 52.6198 36.3435 53.4449 35.5184L73.1434 15.8197C75.6186 13.3447 75.6186 9.3317 73.1434 6.85636C70.6683 4.38129 66.6554 4.38129 64.18 6.85636L51.9509 19.0856" stroke="#2E2D2E" stroke-width="1.6" stroke-miterlimit="10" stroke-linecap="round" stroke-linejoin="round"/>
<path d="M73.1435 15.8198L64.1802 6.85646" stroke="#2E2D2E" stroke-width="1.6" stroke-miterlimit="10" stroke-linecap="round" stroke-linejoin="round"/>
<path d="M73.1434 64.1803L29.9183 20.955C31.0466 16.7266 29.9558 12.0293 26.6386 8.71208C22.7361 4.80955 16.9223 3.98448 12.2106 6.23518L19.1692 13.1938L17.6754 17.6753L13.1937 19.1694L6.23497 12.2107C3.98455 16.9223 4.80948 22.7361 8.712 26.6387C12.0292 29.9558 16.7265 31.0467 20.9549 29.9182L64.1801 73.1436C66.6554 75.6187 70.6684 75.6187 73.1434 73.1436C75.6186 70.6683 75.6186 66.6553 73.1434 64.1803Z" stroke="#2E2D2E" stroke-width="1.6" stroke-miterlimit="10" stroke-linecap="round" stroke-linejoin="round"/>
<path d="M70.1556 67.1682C70.9807 67.9931 70.9807 69.3308 70.1556 70.1559C69.3307 70.981 67.9929 70.981 67.1679 70.1559C66.3428 69.3308 66.3428 67.9931 67.1679 67.1682C67.9929 66.3431 69.3307 66.3431 70.1556 67.1682Z" stroke="#A80055" stroke-width="1.6" stroke-miterlimit="10" stroke-linecap="round" stroke-linejoin="round"/>
<path d="M62.9432 65.9311C63.2526 65.2811 63.6709 64.689 64.1801 64.1802C64.6889 63.6711 65.2811 63.2527 65.931 62.9434L31.0274 28.0399C30.1592 29.1558 29.1556 30.1594 28.0398 31.0276L62.9432 65.9311Z" stroke="#A80055" stroke-width="1.6" stroke-miterlimit="10" stroke-linecap="round" stroke-linejoin="round"/>
</g>
</svg>
