<svg width="32" height="12" fill="none" xmlns="http://www.w3.org/2000/svg"><g clip-path="url(#clip0_27_2770)"><path d="M13.4 11.028h-2.559l1.6-9.757H15l-1.6 9.757zm9.277-9.598c-.48-.16-1.28-.48-2.24-.48-2.558 0-4.318 1.28-4.318 3.2 0 1.44 1.28 2.239 2.24 2.719.96.48 1.28.8 1.28 1.28 0 .639-.8.959-1.6.959-.96 0-1.6-.16-2.4-.48l-.32-.16-.32 2.24c.64.32 1.76.48 2.88.48 2.719 0 4.318-1.28 4.478-3.36 0-1.12-.64-1.919-2.08-2.719-.959-.48-1.439-.8-1.439-1.28s.48-.799 1.44-.799c.8 0 1.44.16 1.92.32l.16.16.32-2.08zm3.359 6.079c.16-.64.96-2.72.96-2.72s.16-.639.32-.959l.16.8s.48 2.399.64 2.879h-2.08zm3.199-6.238h-1.92c-.64 0-1.12.16-1.279.8l-3.679 8.957h2.72s.48-1.28.48-1.44h3.198c0 .32.32 1.44.32 1.44h2.4l-2.24-9.757zm-20.473 0l-2.4 6.718-.32-1.28c-.48-1.6-1.919-3.199-3.518-4.158l2.24 8.637h2.718l3.999-9.757-2.72-.16z" fill="#00579F"/><path d="M3.963 1.271H-.035v.16c3.199.8 5.278 2.719 6.078 5.118l-.96-4.478c-.16-.64-.64-.8-1.12-.8z" fill="#FAA61A"/></g><defs><clipPath id="clip0_27_2770"><path fill="#fff" transform="translate(0 .924)" d="M0 0h31.412v10.471H0z"/></clipPath></defs></svg>