<svg width="35" height="10" fill="none" xmlns="http://www.w3.org/2000/svg"><g clip-path="url(#clip0_27_2787)"><path d="M3.205.03c.314 0 1.22-.104 1.637 1.22.244.87.697 2.334 1.255 4.32h.174c.627-2.09 1.045-3.554 1.254-4.32C7.873-.074 8.849.03 9.267.03h3.03v9.407h-3.1v-5.54h-.209l-1.672 5.54H4.982L3.31 3.897H3.1v5.54H0V.03h3.205zm13.552 0v5.54h.21l2.09-4.564C19.473.1 20.344.03 20.344.03h3.031v9.407h-3.17v-5.54h-.209l-2.055 4.564c-.384.906-1.324.976-1.324.976h-2.996V.03h3.135zm17.489 4.494C33.793 5.78 32.434 6.65 30.9 6.65h-3.274v2.788H24.63V4.524h9.615z" fill="#4DB45E"/><path d="M31.006.03H24.42c.175 2.091 1.951 3.903 3.833 3.903h6.166C34.768 2.156 33.584.03 31.006.03z" fill="url(#paint0_linear_27_2787)"/></g><defs><linearGradient id="paint0_linear_27_2787" x1="24.436" y1="1.982" x2="34.508" y2="1.982" gradientUnits="userSpaceOnUse"><stop offset=".3" stop-color="#00B4E6"/><stop offset="1" stop-color="#088CCB"/></linearGradient><clipPath id="clip0_27_2787"><path fill="#fff" transform="translate(0 .03)" d="M0 0h34.49v9.406H0z"/></clipPath></defs></svg>