<svg width="23" height="18" fill="none" xmlns="http://www.w3.org/2000/svg"><g clip-path="url(#clip0_27_2808)"><path d="M4.16 17.821v-1.183c0-.466-.287-.753-.753-.753-.251 0-.502.072-.682.323-.143-.215-.322-.323-.645-.323a.595.595 0 00-.538.287v-.251h-.394v1.9h.43v-1.04c0-.322.18-.502.466-.502.287 0 .43.18.43.502v1.04h.395v-1.04c0-.322.215-.502.466-.502.287 0 .43.18.43.502v1.04h.395zm6.132-1.9H9.61v-.574h-.43v.574h-.394v.394h.394v.86c0 .431.18.682.645.682.18 0 .395-.072.503-.143l-.108-.359a.692.692 0 01-.359.108c-.215 0-.287-.108-.287-.323v-.86h.682l.036-.36zm3.514-.036a.533.533 0 00-.502.287v-.251h-.395v1.9h.43v-1.076c0-.322.144-.502.395-.502.072 0 .18.036.251.036l.108-.394h-.287zm-5.307.18c-.215-.144-.466-.216-.79-.216-.465 0-.788.251-.788.61 0 .322.25.502.645.538l.216.035c.215.036.322.108.322.215 0 .144-.143.252-.43.252-.287 0-.502-.108-.646-.216l-.215.323c.215.144.502.251.825.251.538 0 .86-.25.86-.61 0-.322-.25-.502-.645-.573l-.215-.036c-.18-.036-.323-.072-.323-.18 0-.143.144-.214.359-.214.25 0 .466.107.61.143l.215-.323zm11.008-.18a.533.533 0 00-.502.287v-.251h-.394v1.9h.43v-1.076c0-.322.144-.502.395-.502.072 0 .18.036.25.036l.108-.394h-.287zm-5.27.968c0 .574.394 1.004 1.003 1.004.287 0 .466-.072.682-.215l-.216-.323a.857.857 0 01-.502.18c-.322 0-.573-.252-.573-.61 0-.359.25-.61.573-.61.18 0 .323.072.502.18l.216-.323a1.104 1.104 0 00-.682-.215c-.645-.036-1.004.358-1.004.932zm3.8 0v-.968h-.43v.25a.717.717 0 00-.61-.286c-.538 0-.968.43-.968 1.004 0 .574.43 1.004.968 1.004a.717.717 0 00.61-.287v.251h.43v-.968zm-1.506 0c0-.323.215-.61.574-.61.323 0 .574.252.574.61 0 .323-.251.61-.574.61-.359 0-.574-.251-.574-.61zm-4.948-.968c-.538 0-.969.394-.969 1.004s.395 1.004.969 1.004c.287 0 .537-.072.788-.251l-.215-.287c-.143.108-.358.215-.538.215-.25 0-.502-.107-.573-.466h1.398v-.143c.036-.682-.322-1.076-.86-1.076zm0 .359c.25 0 .43.143.466.466h-1.004c.036-.287.215-.466.538-.466zm10.255.61v-1.722h-.43v1.004a.717.717 0 00-.61-.287c-.537 0-.968.43-.968 1.004 0 .574.43 1.004.969 1.004a.717.717 0 00.61-.287v.251h.43v-.968zm-1.542 0c0-.324.216-.61.574-.61.323 0 .574.25.574.61 0 .322-.251.609-.574.609-.358 0-.574-.251-.574-.61zm-13.805 0v-.97h-.43v.252a.717.717 0 00-.61-.287c-.538 0-.969.43-.969 1.004 0 .574.43 1.004.969 1.004a.717.717 0 00.61-.287v.251h.43v-.968zm-1.542 0c0-.324.215-.61.573-.61.323 0 .574.25.574.61 0 .322-.25.609-.574.609-.358 0-.573-.251-.573-.61z" fill="#000"/><path d="M14.595 1.578H8.39V12.73h6.204V1.578z" fill="#FF5A00"/><path d="M8.75 7.136c0-2.295 1.075-4.267 2.725-5.594C10.255.609 8.75.036 7.1.036a7.07 7.07 0 00-7.1 7.1 7.07 7.07 0 007.1 7.1c1.65 0 3.156-.574 4.375-1.542-1.65-1.255-2.725-3.3-2.725-5.558z" fill="#EB001B"/><path d="M22.95 7.136c0 3.908-3.156 7.1-7.1 7.1a6.988 6.988 0 01-4.375-1.542c1.65-1.327 2.725-3.3 2.725-5.594 0-2.295-1.075-4.267-2.725-5.594C12.695.609 14.2.036 15.85.036c3.944 0 7.1 3.191 7.1 7.1z" fill="#F79E1B"/></g><defs><clipPath id="clip0_27_2808"><path fill="#fff" transform="translate(0 .036)" d="M0 0h22.95v17.93H0z"/></clipPath></defs></svg>