<svg width="40" height="28" fill="none" xmlns="http://www.w3.org/2000/svg"><rect width="40" height="28" rx="3" fill="#fff"/><path fill-rule="evenodd" clip-rule="evenodd" d="M20.2 19.71a7.274 7.274 0 002.399-5.411 7.272 7.272 0 00-2.4-5.41A7.266 7.266 0 0015.306 7 7.3 7.3 0 1020.2 19.71z" fill="#4186CD"/><path fill-rule="evenodd" clip-rule="evenodd" d="M20.2 19.71a7.275 7.275 0 002.399-5.411 7.272 7.272 0 00-2.4-5.41V19.71z" fill="#4487CA"/><path fill-rule="evenodd" clip-rule="evenodd" d="M25.106 7a7.274 7.274 0 00-5.644 2.663h1.476c.204.242.39.5.554.772h-2.584a9.15 9.15 0 00-.423.773h3.43c.117.25.219.51.303.773h-4.037a6.14 6.14 0 00-.217.773h4.472a7.22 7.22 0 01.163 1.545c0 .81-.13 1.59-.38 2.318H18.18c.087.266.185.523.304.774h3.43a6.66 6.66 0 01-.424.773h-2.583c.163.27.358.527.554.772h1.476a7.93 7.93 0 01-.738.774 7.28 7.28 0 004.906 1.889 7.297 7.297 0 007.294-7.3A7.297 7.297 0 0025.106 7" fill="#CA4638"/><path fill-rule="evenodd" clip-rule="evenodd" d="M31.629 18.354h.032c.011 0 .022.001.022-.003.011-.006.022-.015.022-.024 0-.009-.011-.018-.022-.022 0-.005-.021-.003-.021-.003h-.033v.052zm0 .118h-.043v-.207h.086a.1.1 0 01.055.01c.013.015.02.033.021.052 0 .024-.01.045-.033.053l.033.092h-.054l-.022-.082h-.043v.082zm.032.076c.098 0 .185-.08.185-.18a.184.184 0 00-.184-.179.175.175 0 00-.174.18c0 .099.076.18.174.18zm-.238-.18c0-.13.108-.235.239-.235.13 0 .238.105.238.236 0 .13-.108.235-.238.235a.238.238 0 01-.24-.235zM14.165 16.33h-.923l.543-2.845-1.249 2.845h-.76l-.151-2.829-.608 2.83h-.835l.705-3.701h1.444l.021 2.29.999-2.29h1.53l-.716 3.7zm10.148-.037a2.36 2.36 0 01-.65.098c-.468 0-.717-.233-.717-.661 0-.085 0-.175.021-.27l.054-.295.044-.237.423-2.299h.901l-.13.691h.466l-.13.731h-.466l-.24 1.256c-.01.056-.01.096-.01.124 0 .156.087.224.304.224a.864.864 0 00.25-.028l-.12.666zM20.71 14.27c0 .38.206.642.695.839.369.151.434.196.434.332 0 .189-.163.273-.532.273-.271 0-.532-.037-.825-.12l-.12.695.033.006.174.031c.054.009.13.018.239.027.217.016.39.025.51.025.966 0 1.41-.319 1.41-1.005 0-.412-.184-.655-.64-.838-.39-.153-.434-.185-.434-.326 0-.163.152-.246.445-.246.185 0 .435.018.662.046l.13-.697a7.154 7.154 0 00-.802-.06c-1.031 0-1.39.463-1.379 1.018zm-4.222.719a1.673 1.673 0 00-.207-.013c-.51 0-.77.154-.77.457 0 .187.13.308.325.308.37 0 .64-.307.652-.752zm.618 1.34h-.76l.022-.313c-.238.248-.542.365-.955.365-.5 0-.836-.335-.836-.821 0-.734.586-1.161 1.596-1.161.108 0 .238.007.369.023a.597.597 0 00.043-.195c0-.2-.163-.275-.586-.275-.26 0-.554.033-.76.085l-.12.031-.086.019.13-.676c.456-.116.749-.16 1.085-.16.782 0 1.194.305 1.194.884 0 .148-.01.26-.076.596l-.184 1.067-.033.192-.021.152-.022.105v.082zm2.54-1.856c0-.062.011-.114.011-.153 0-.245-.163-.388-.434-.388-.293 0-.5.192-.575.54h.998zm.445 1.79a3.533 3.533 0 01-.933.122c-1.02 0-1.542-.462-1.542-1.347 0-1.034.673-1.794 1.585-1.794.749 0 1.227.425 1.227 1.094 0 .222-.033.437-.12.742h-1.801c-.011.046-.011.067-.011.096 0 .348.271.526.803.526.325 0 .619-.058.944-.19l-.152.752zm8.77-1.658c0-.314-.13-.613-.499-.613-.467 0-.749.55-.749 1.032 0 .408.195.682.521.676.195 0 .619-.268.695-.737.021-.108.032-.227.032-.358zm.923.36c-.13 1-.836 1.444-1.77 1.444-1.02 0-1.432-.622-1.432-1.386 0-1.067.694-1.79 1.78-1.79.944 0 1.444.595 1.444 1.359 0 .185 0 .198-.022.373z" fill="#231F20"/><path fill-rule="evenodd" clip-rule="evenodd" d="M30.088 15.867h.032s.011 0 .022-.004c.01-.005.01-.015.01-.024 0-.007 0-.016-.01-.02 0-.005-.022-.005-.033-.005h-.021v.053zm0 .118h-.044v-.208h.087a.13.13 0 01.054.012.076.076 0 01.022.052c0 .022-.011.045-.033.053l.033.09h-.055l-.032-.08h-.032v.08zm.032.075c.098 0 .174-.08.174-.18a.174.174 0 00-.107-.163.175.175 0 00-.067-.014.185.185 0 00-.184.178c0 .1.087.18.184.18zm-.239-.18a.239.239 0 01.478.001.238.238 0 01-.407.167.238.238 0 01-.07-.167zm-15.488.236h-.912l.543-2.845-1.249 2.845h-.824l-.152-2.827-.543 2.827h-.825l.706-3.7h1.421l.065 2.292 1.01-2.292h1.476l-.716 3.7zm10.148-.035c-.25.068-.445.098-.651.098-.467 0-.717-.234-.717-.661 0-.085.011-.175.022-.27l.055-.295.043-.24.423-2.297h.901l-.13.69h.467l-.13.733h-.468l-.238 1.256c-.011.055-.011.096-.011.124 0 .157.098.223.315.223a.827.827 0 00.238-.028l-.119.667z" fill="#fff"/><path fill-rule="evenodd" clip-rule="evenodd" d="M26.875 13.971l-.022-.095.185-.47c-.044-.006-.065-.007-.065-.01-.055-.01-.076-.016-.087-.016a.36.36 0 00-.087-.007c-.304 0-.51.132-.792.487l.098-.535h-.945l-.553 3.005h.9c.12-.69.174-1.082.25-1.408.12-.541.521-.787.814-.733.033.006.054.006.098.023l.054.02.152-.26z" fill="#231F20"/><path fill-rule="evenodd" clip-rule="evenodd" d="M27.19 13.132c-.077-.03-.087-.03-.098-.032l-.076-.018a.712.712 0 00-.098-.008c-.293 0-.51.134-.792.49l.087-.457h-.825l-.554 3.01h.912c.325-1.84.467-2.164.9-2.164.033 0 .066.003.11.008l.108.022.325-.851zm-6.252.927c0 .38.217.642.705.839.37.15.424.194.424.332 0 .187-.163.271-.521.271a2.94 2.94 0 01-.825-.118l-.13.694.043.007.163.03a7.134 7.134 0 00.749.052c.976 0 1.421-.318 1.421-1.004 0-.414-.184-.656-.65-.838-.38-.153-.424-.187-.424-.328 0-.161.152-.245.445-.245a6 6 0 01.662.045l.13-.696a7.158 7.158 0 00-.814-.06c-1.02 0-1.378.463-1.378 1.019zm-4.255.717a1.672 1.672 0 00-.206-.012c-.51 0-.77.154-.77.458 0 .187.119.307.325.307.369 0 .63-.308.651-.753zm.662 1.34h-.76l.022-.31c-.228.246-.543.362-.955.362-.489 0-.825-.335-.825-.821 0-.733.586-1.161 1.595-1.161.098 0 .228.009.37.024.021-.1.032-.141.032-.196 0-.199-.163-.273-.587-.273-.26 0-.553.031-.748.083l-.13.033-.077.02.12-.678c.456-.116.749-.159 1.085-.159.782 0 1.194.306 1.194.882 0 .149-.01.261-.065.596l-.195 1.07-.033.19-.022.153-.01.104-.01.081zm2.497-1.854v-.155c0-.244-.152-.386-.424-.386-.293 0-.499.19-.586.54h1.01zm.477 1.79c-.3.082-.61.123-.922.122-1.02 0-1.552-.462-1.552-1.349 0-1.031.672-1.792 1.584-1.792.749 0 1.226.425 1.226 1.093 0 .222-.032.438-.108.743h-1.802c-.01.046-.01.067-.01.095 0 .349.27.527.791.527.326 0 .62-.06.945-.192l-.152.754zm8.76-1.685c0-.314-.131-.612-.5-.612-.466 0-.749.548-.749 1.032 0 .409.196.683.521.677.196 0 .619-.268.695-.737.021-.11.032-.23.032-.36zm.944.386c-.142 1-.836 1.445-1.77 1.445-1.03 0-1.443-.624-1.443-1.388 0-1.066.705-1.789 1.79-1.789.945 0 1.444.594 1.444 1.358 0 .187 0 .199-.021.374z" fill="#fff"/></svg>