<svg width="16" height="16" fill="none" xmlns="http://www.w3.org/2000/svg"><g clip-path="url(#clip0_95_8995)"><path d="M11.08 0h.113c.091 1.128-.34 1.971-.863 2.582-.513.606-1.217 1.194-2.354 1.105-.076-1.112.355-1.893.878-2.502C9.339.618 10.227.112 11.079 0zm3.443 11.744v.032a9.31 9.31 0 01-1.333 2.568c-.508.7-1.13 1.64-2.242 1.64-.96 0-1.598-.618-2.582-.635-1.042-.017-1.614.517-2.566.651h-.325c-.699-.101-1.263-.655-1.674-1.154a10.108 10.108 0 01-2.323-5.814v-.716c.074-1.744.921-3.162 2.048-3.849.594-.365 1.411-.677 2.32-.537.39.06.79.193 1.138.326.331.127.745.352 1.137.34.266-.007.53-.146.798-.243.784-.284 1.552-.608 2.566-.456 1.217.184 2.081.725 2.615 1.56-1.03.655-1.844 1.643-1.705 3.33.124 1.533 1.015 2.43 2.128 2.957z" fill="#2E2D2E"/></g><defs><clipPath id="clip0_95_8995"><path fill="#fff" d="M0 0h16v16H0z"/></clipPath></defs></svg>