<svg width="40" height="28" fill="none" xmlns="http://www.w3.org/2000/svg"><rect width="40" height="28" rx="3" fill="#fff"/><path d="M11 12.833c0-1.227.105-2.005 2.705-3.9C15.856 7.363 22.755 2 22.755 2v8.953H28V23.84H12.639c-.902 0-1.639-.721-1.639-1.601v-9.405z" fill="#FFDB4D"/><path d="M22.753 10.954v5.187l-9.64 6.416 12.188-3.874v-7.729h-2.548zm-4.399-.271c.563-.656 1.387-.887 1.838-.516.453.37.362 1.203-.202 1.858-.563.657-1.387.888-1.838.517-.453-.37-.362-1.203.202-1.859z" fill="#fff"/></svg>