<svg width="40" height="28" fill="none" xmlns="http://www.w3.org/2000/svg"><rect width="40" height="28" rx="3" fill="#fff"/><g fill="#0068A3"><path d="M19.49 6c1.334 0 2.596.311 3.72.862.178.084.354.176.53.278l-.781.7-1.174-1.216-1.983 1.768-1.177-1.284-3.692 3.328 2.367 2.608-.93.819 2.331 2.612-.924.816 3.331 3.71 1.978-1.822 1.71 1.951c-.34.265-.711.514-1.12.743a8.427 8.427 0 01-4.185 1.11C14.814 22.982 11 19.167 11 14.49 11 9.814 14.814 6 19.49 6z"/><path d="M17.852 13.986l2.019-1.819 1.818 2.02-2.02 1.818-1.817-2.02zm1.546 3.424l2.02-1.817 1.818 2.02-2.019 1.818-1.819-2.02zm-2.915-6.85l2.02-1.818 1.817 2.019-2.02 1.818-1.817-2.02zm3.6-.97l1.514-1.364L22.96 9.74l-1.514 1.364-1.363-1.515zm2.737 6.17l1.514-1.364 1.363 1.515-1.514 1.363-1.364-1.514zm1.368 3.084l1.514-1.364 1.364 1.514-1.515 1.364-1.363-1.514zm.515-6.967l1.01-.91.909 1.01-1.01.91-.909-1.01zm-1.189-3.084l1.01-.91.908 1.01-1.01.91-.909-1.01zm2.568 5.999l1.01-.91.908 1.01-1.01.91-.908-1.01zm-4.462-2.287l1.514-1.364 1.363 1.514-1.514 1.364-1.363-1.514z"/></g></svg>