<svg width="40" height="28" fill="none" xmlns="http://www.w3.org/2000/svg"><rect width="40" height="28" rx="3" fill="#fff"/><path d="M27.843 22.462c-.484-.995-1.342-1.725-2.272-2.285a4.975 4.975 0 00-1.004-.437c-.73-.238-1.436-.294-2.26-.436-.668-.116-1.198-.394-1.765-.783a2.95 2.95 0 01-.739-.78c-.038-.06-.227-.293-.207-.373 0 0-.132.533.128 1.28-2.394-.11-4.494-1.451-5.456-3.078-1.77-2.994-1.146-6.622 1.214-8.225 2.36-1.602 5.958-.472 7.884 2.421 1.21 1.816 1.518 3.929 1 5.646-.003.014-.008.027-.012.04-1.023-.752-1.958-.368-1.958-.368 1.025-.107 1.836.717 1.836.717.12.107.234.226.338.358.023.032.047.064.07.099.269.368.437.778.507 1.194 2.037-2.612 2.374-6.227.572-9.035-2.295-3.579-7.19-4.493-10.929-2.044-3.74 2.45-4.91 7.337-2.614 10.915 1.886 2.944 6.311 3.842 8.848 3.03.96-.304 4.243-.594 6.529 2.134 0 0 .197.229.305.489 0 0 .031.091.116.047.023-.012.084-.086-.13-.526zm-4.707-4.832l-.007-.004a.022.022 0 01-.013-.004l-.015-.006h-.01l-.025-.009a.41.41 0 00-.299.055c-.198.136-.229.444-.066.69a.62.62 0 00.295.233l.011.003.015.004c.005 0 .007.002.01.004.01.001.016.005.024.005a.385.385 0 00.3-.053c.2-.137.23-.443.067-.688a.587.587 0 00-.287-.23zm1.326-.566c-.167-.063-.182.138-.14.268.093.305.22.538.313.585.089.054.194-.07.127-.377-.029-.131-.13-.409-.3-.476z" fill="#F90"/></svg>