<svg width="32" height="12" viewBox="0 0 32 12" fill="none" xmlns="http://www.w3.org/2000/svg">
<g clip-path="url(#clip0_27_2770)">
<path d="M13.4002 11.0277H10.8411L12.4406 1.271H14.9997L13.4002 11.0277Z" fill="#00579F"/>
<path d="M22.6771 1.43052C22.1973 1.27057 21.3975 0.950684 20.4379 0.950684C17.8787 0.950684 16.1193 2.23025 16.1193 4.1496C16.1193 5.58911 17.3989 6.38884 18.3586 6.86868C19.3182 7.34852 19.6381 7.66841 19.6381 8.14825C19.6381 8.78803 18.8384 9.10793 18.0387 9.10793C17.079 9.10793 16.4392 8.94798 15.6395 8.62809L15.3196 8.46814L14.9997 10.7074C15.6395 11.0273 16.7591 11.1872 17.8787 11.1872C20.5978 11.1872 22.1973 9.90765 22.3572 7.82836C22.3572 6.70873 21.7174 5.90901 20.2779 5.10928C19.3182 4.62944 18.8384 4.30955 18.8384 3.82971C18.8384 3.34987 19.3182 3.02998 20.2779 3.02998C21.0776 3.02998 21.7174 3.18993 22.1973 3.34987L22.3572 3.50982L22.6771 1.43052Z" fill="#00579F"/>
<path d="M26.036 7.50889C26.1959 6.8691 26.9957 4.78981 26.9957 4.78981C26.9957 4.78981 27.1556 4.15002 27.3156 3.83013L27.4755 4.62986C27.4755 4.62986 27.9553 7.02905 28.1153 7.50889C27.7954 7.50889 26.5158 7.50889 26.036 7.50889ZM29.2349 1.271H27.3156C26.6758 1.271 26.1959 1.43094 26.036 2.07073L22.3572 11.0277H25.0763C25.0763 11.0277 25.5561 9.74813 25.5561 9.58818C25.876 9.58818 28.4352 9.58818 28.7551 9.58818C28.7551 9.90808 29.075 11.0277 29.075 11.0277H31.4741L29.2349 1.271Z" fill="#00579F"/>
<path d="M8.76182 1.271L6.36263 7.98872L6.04274 6.70916C5.5629 5.1097 4.12338 3.51024 2.52393 2.55057L4.76317 11.1876H7.48225L11.4809 1.43094L8.76182 1.271Z" fill="#00579F"/>
<path d="M3.96344 1.271H-0.0352058V1.43094C3.16371 2.23067 5.24301 4.15002 6.04274 6.54921L5.08306 2.07073C4.92312 1.43094 4.44328 1.271 3.96344 1.271Z" fill="#FAA61A"/>
</g>
<defs>
<clipPath id="clip0_27_2770">
<rect width="31.4118" height="10.4706" fill="white" transform="translate(-2.67029e-05 0.923828)"/>
</clipPath>
</defs>
</svg>
