<svg width="35" height="10" viewBox="0 0 35 10" fill="none" xmlns="http://www.w3.org/2000/svg">
<g id="mir.svg" clip-path="url(#clip0_27_2787)">
<path id="Combined-Shape" d="M3.20506 0.0302638C3.5186 0.0302638 4.42439 -0.0742504 4.84245 1.2496C5.08632 2.12055 5.53921 3.58375 6.09662 5.56952H6.27081C6.8979 3.47923 7.31595 2.01603 7.52498 1.2496C7.87336 -0.0742504 8.84883 0.0302638 9.26689 0.0302638H12.2978V9.43654H9.19721V3.89729H8.98818L7.31595 9.43654H4.9818L3.30957 3.89729H3.10055V9.43654H-4.33922e-05V0.0302638H3.20506ZM16.7571 0.0302638V5.56952H16.9661L19.0564 1.00573C19.4744 0.09994 20.3454 0.0302638 20.3454 0.0302638H23.3763V9.43654H20.206V3.89729H19.997L17.9416 8.46108C17.5583 9.36687 16.6177 9.43654 16.6177 9.43654H13.6216V0.0302638H16.7571ZM34.2458 4.52437C33.7929 5.77855 32.4342 6.6495 30.9013 6.6495H27.6266V9.43654H24.6305V4.52437H34.2458Z" fill="#4DB45E"/>
<path id="path24" d="M31.0058 0.0307617H24.4214C24.5956 2.12105 26.3724 3.93263 28.2536 3.93263H34.42C34.7684 2.15588 33.5839 0.0307617 31.0058 0.0307617Z" fill="url(#paint0_linear_27_2787)"/>
</g>
<defs>
<linearGradient id="paint0_linear_27_2787" x1="24.4356" y1="1.98227" x2="34.508" y2="1.98227" gradientUnits="userSpaceOnUse">
<stop offset="0.3" stop-color="#00B4E6"/>
<stop offset="1" stop-color="#088CCB"/>
</linearGradient>
<clipPath id="clip0_27_2787">
<rect width="34.4897" height="9.40628" fill="white" transform="translate(-2.76566e-05 0.0307617)"/>
</clipPath>
</defs>
</svg>
