<svg width="23" height="18" viewBox="0 0 23 18" fill="none" xmlns="http://www.w3.org/2000/svg">
<g id="Mastercard.svg" clip-path="url(#clip0_27_2808)">
<path id="XMLID_1775_" d="M4.1597 17.8213V16.6379C4.1597 16.1718 3.87283 15.8849 3.40666 15.8849C3.15564 15.8849 2.90462 15.9566 2.72533 16.2076C2.58189 15.9925 2.40259 15.8849 2.07986 15.8849C1.8647 15.8849 1.68541 15.9566 1.54197 16.1718V15.9207H1.14751V17.8213H1.57783V16.7814C1.57783 16.4586 1.75712 16.2793 2.044 16.2793C2.33087 16.2793 2.47431 16.4586 2.47431 16.7814V17.8213H2.86876V16.7814C2.86876 16.4586 3.08392 16.2793 3.33494 16.2793C3.62181 16.2793 3.76525 16.4586 3.76525 16.7814V17.8213H4.1597ZM10.2917 15.9207H9.61033V15.347H9.18001V15.9207H8.78556V16.3152H9.18001V17.1758C9.18001 17.6061 9.35931 17.8571 9.82548 17.8571C10.0048 17.8571 10.2199 17.7854 10.3275 17.7137L10.2199 17.3551C10.1124 17.4268 9.96892 17.4627 9.86134 17.4627C9.64619 17.4627 9.57447 17.3551 9.57447 17.14V16.2793H10.2558L10.2917 15.9207ZM13.8059 15.8849C13.5549 15.8849 13.4114 15.9925 13.3038 16.1718V15.9207H12.9094V17.8213H13.3397V16.7455C13.3397 16.4228 13.4831 16.2435 13.7342 16.2435C13.8059 16.2435 13.9135 16.2793 13.9852 16.2793L14.0927 15.8849C14.021 15.8849 13.8776 15.8849 13.8059 15.8849ZM8.49869 16.0642C8.28353 15.9207 8.03251 15.849 7.70978 15.849C7.24361 15.849 6.92087 16.1 6.92087 16.4586C6.92087 16.7814 7.17189 16.9607 7.56634 16.9965L7.7815 17.0324C7.99665 17.0682 8.10423 17.14 8.10423 17.2475C8.10423 17.391 7.9608 17.4986 7.67392 17.4986C7.38705 17.4986 7.17189 17.391 7.02845 17.2834L6.8133 17.6061C7.02845 17.7496 7.31533 17.8571 7.63806 17.8571C8.17595 17.8571 8.49869 17.6061 8.49869 17.2475C8.49869 16.9248 8.24767 16.7455 7.85322 16.6738L7.63806 16.6379C7.45876 16.6021 7.31533 16.5662 7.31533 16.4586C7.31533 16.3152 7.45876 16.2435 7.67392 16.2435C7.92494 16.2435 8.14009 16.3511 8.28353 16.3869L8.49869 16.0642ZM19.5075 15.8849C19.2565 15.8849 19.1131 15.9925 19.0055 16.1718V15.9207H18.611V17.8213H19.0413V16.7455C19.0413 16.4228 19.1848 16.2435 19.4358 16.2435C19.5075 16.2435 19.6151 16.2793 19.6868 16.2793L19.7944 15.8849C19.7227 15.8849 19.5792 15.8849 19.5075 15.8849ZM14.2362 16.8531C14.2362 17.4268 14.6306 17.8571 15.2402 17.8571C15.5271 17.8571 15.7064 17.7854 15.9216 17.642L15.7064 17.3193C15.563 17.4268 15.3837 17.4986 15.2044 17.4986C14.8817 17.4986 14.6306 17.2475 14.6306 16.8889C14.6306 16.5304 14.8817 16.2793 15.2044 16.2793C15.3837 16.2793 15.5271 16.3511 15.7064 16.4586L15.9216 16.1359C15.7064 15.9925 15.5271 15.9207 15.2402 15.9207C14.5948 15.8849 14.2362 16.2793 14.2362 16.8531ZM18.0373 16.8531V15.8849H17.607V16.1359C17.4635 15.9566 17.2842 15.849 16.9974 15.849C16.4595 15.849 16.0292 16.2793 16.0292 16.8531C16.0292 17.4268 16.4595 17.8571 16.9974 17.8571C17.2842 17.8571 17.4635 17.7496 17.607 17.5703V17.8213H18.0373V16.8531ZM16.5312 16.8531C16.5312 16.5304 16.7463 16.2435 17.1049 16.2435C17.4277 16.2435 17.6787 16.4945 17.6787 16.8531C17.6787 17.1758 17.4277 17.4627 17.1049 17.4627C16.7463 17.4627 16.5312 17.2117 16.5312 16.8531ZM11.5826 15.8849C11.0447 15.8849 10.6144 16.2793 10.6144 16.8889C10.6144 17.4986 11.0088 17.893 11.5826 17.893C11.8695 17.893 12.1205 17.8213 12.3715 17.642L12.1563 17.3551C12.0129 17.4627 11.7977 17.5703 11.6185 17.5703C11.3674 17.5703 11.1164 17.4627 11.0447 17.1041H12.4432C12.4432 17.0324 12.4432 16.9965 12.4432 16.9607C12.4791 16.2793 12.1205 15.8849 11.5826 15.8849ZM11.5826 16.2435C11.8336 16.2435 12.0129 16.3869 12.0488 16.7096H11.0447C11.0806 16.4228 11.2599 16.2435 11.5826 16.2435ZM21.8384 16.8531V15.1318H21.4081V16.1359C21.2646 15.9566 21.0853 15.849 20.7985 15.849C20.2606 15.849 19.8302 16.2793 19.8302 16.8531C19.8302 17.4268 20.2606 17.8571 20.7985 17.8571C21.0853 17.8571 21.2646 17.7496 21.4081 17.5703V17.8213H21.8384V16.8531ZM20.2964 16.8531C20.2964 16.5304 20.5116 16.2435 20.8702 16.2435C21.1929 16.2435 21.4439 16.4945 21.4439 16.8531C21.4439 17.1758 21.1929 17.4627 20.8702 17.4627C20.5116 17.4627 20.2964 17.2117 20.2964 16.8531ZM6.49056 16.8531V15.8849H6.06025V16.1359C5.91681 15.9566 5.73751 15.849 5.45064 15.849C4.91275 15.849 4.48244 16.2793 4.48244 16.8531C4.48244 17.4268 4.91275 17.8571 5.45064 17.8571C5.73751 17.8571 5.91681 17.7496 6.06025 17.5703V17.8213H6.49056V16.8531ZM4.94861 16.8531C4.94861 16.5304 5.16376 16.2435 5.52236 16.2435C5.84509 16.2435 6.09611 16.4945 6.09611 16.8531C6.09611 17.1758 5.84509 17.4627 5.52236 17.4627C5.16376 17.4627 4.94861 17.2117 4.94861 16.8531Z" fill="black"/>
<g id="Group">
<path id="rect19" d="M14.5948 1.57764H8.39111V12.7299H14.5948V1.57764Z" fill="#FF5A00"/>
<path id="XMLID_330_" d="M8.74969 7.1358C8.74969 4.8408 9.82547 2.86854 11.475 1.54174C10.2558 0.609395 8.74969 0.0356445 7.10016 0.0356445C3.15563 0.0356445 3.8147e-06 3.19127 3.8147e-06 7.1358C3.8147e-06 11.0803 3.15563 14.236 7.10016 14.236C8.74969 14.236 10.2558 13.6622 11.475 12.694C9.82547 11.4389 8.74969 9.39494 8.74969 7.1358Z" fill="#EB001B"/>
<path id="path22" d="M22.95 7.1358C22.95 11.0445 19.7944 14.236 15.8499 14.236C14.2003 14.236 12.6942 13.6622 11.475 12.694C13.1245 11.3672 14.2003 9.39494 14.2003 7.09994C14.2003 4.80494 13.1245 2.83268 11.475 1.50588C12.6942 0.609395 14.2003 0.0356445 15.8499 0.0356445C19.7944 0.0356445 22.95 3.22713 22.95 7.1358Z" fill="#F79E1B"/>
</g>
</g>
<defs>
<clipPath id="clip0_27_2808">
<rect width="22.95" height="17.9297" fill="white" transform="translate(3.8147e-06 0.0356445)"/>
</clipPath>
</defs>
</svg>
