<svg width="40" height="28" viewBox="0 0 40 28" fill="none" xmlns="http://www.w3.org/2000/svg">
<g id="Group 101">
<rect id="Rectangle 89" width="40" height="28" rx="3" fill="white"/>
<g id="Group">
<g id="Group_2">
<path id="Vector" fill-rule="evenodd" clip-rule="evenodd" d="M20.1998 19.71C20.9566 19.0266 21.5612 18.1916 21.9745 17.2594C22.3877 16.3271 22.6004 15.3184 22.5986 14.2987C22.5986 12.1534 21.6759 10.2246 20.1998 8.88874C18.8603 7.67149 17.1147 6.99797 15.3048 7C11.2672 7 8 10.2674 8 14.2987C8 18.3314 11.2672 21.599 15.3048 21.599C17.1821 21.599 18.908 20.8831 20.1998 19.71Z" fill="#4186CD"/>
<path id="Vector_2" fill-rule="evenodd" clip-rule="evenodd" d="M20.1998 19.71C20.9566 19.0265 21.5612 18.1916 21.9745 17.2593C22.3877 16.3271 22.6004 15.3183 22.5986 14.2986C22.5986 12.1534 21.6759 10.2245 20.1998 8.88867V19.71Z" fill="#4487CA"/>
<path id="Vector_3" fill-rule="evenodd" clip-rule="evenodd" d="M25.1058 7C23.2172 7 21.4913 7.71466 20.1998 8.88873C19.9366 9.1298 19.69 9.38836 19.4617 9.66266H20.9378C21.1425 9.90516 21.3276 10.1634 21.4916 10.4351H18.9082C18.7548 10.6857 18.6135 10.9434 18.4849 11.2076H21.9147C22.0324 11.4587 22.1339 11.7171 22.2184 11.9813H18.1811C18.092 12.2338 18.0195 12.4918 17.9641 12.7537H22.4359C22.5446 13.252 22.5988 13.7692 22.5988 14.2986C22.5988 15.1095 22.4684 15.8893 22.2189 16.6173H18.1811C18.268 16.8826 18.3657 17.1404 18.4849 17.391H21.9147C21.7843 17.658 21.6542 17.916 21.4913 18.1637H18.908C19.0708 18.4337 19.2664 18.6914 19.4617 18.9363H20.9378C20.7095 19.2104 20.4629 19.4689 20.1998 19.7098C21.5428 20.9285 23.2922 21.6021 25.1058 21.5988C29.1326 21.5988 32.3996 18.3314 32.3996 14.2986C32.3996 10.2676 29.1323 7.00021 25.1058 7.00021" fill="#CA4638"/>
<g id="Group_3">
<path id="Vector_4" fill-rule="evenodd" clip-rule="evenodd" d="M31.6288 18.3536H31.6615C31.6725 18.3536 31.683 18.3553 31.683 18.3507C31.6942 18.3447 31.7047 18.3359 31.7047 18.3272C31.7047 18.318 31.694 18.3093 31.683 18.3049C31.683 18.3002 31.6615 18.3017 31.6615 18.3017H31.6288V18.3536ZM31.6288 18.4724H31.5856V18.2648H31.6723C31.694 18.2648 31.7047 18.2648 31.7265 18.2753C31.7397 18.2895 31.7474 18.3079 31.7482 18.3272C31.7482 18.3509 31.7372 18.3717 31.7155 18.3804L31.7482 18.4724H31.694L31.6723 18.3895H31.6286L31.6288 18.4724ZM31.6615 18.5481C31.7592 18.5481 31.8461 18.4679 31.8461 18.3686C31.8461 18.269 31.7592 18.1891 31.6615 18.1891C31.564 18.1891 31.4879 18.2692 31.4879 18.3684C31.4879 18.4679 31.5638 18.5481 31.6615 18.5481ZM31.4227 18.3686C31.4227 18.2378 31.5313 18.133 31.6615 18.133C31.7919 18.133 31.9003 18.238 31.9003 18.3686C31.9003 18.4992 31.7916 18.6042 31.6615 18.6042C31.5313 18.6042 31.4227 18.4992 31.4227 18.3686ZM14.1651 16.3301H13.2422L13.7848 13.485L12.5364 16.3301H11.7766L11.6248 13.5014L11.0173 16.3301H10.1815L10.8869 12.6298H12.3305L12.3521 14.9204L13.3509 12.6296H14.881L14.1651 16.3301ZM24.3133 16.2927C24.0637 16.3613 23.8682 16.3908 23.6621 16.3908C23.1953 16.3908 22.9456 16.158 22.9456 15.7295C22.9456 15.6452 22.9456 15.5549 22.9671 15.4595L23.0213 15.1647L23.0649 14.9276L23.4881 12.6294H24.389L24.2589 13.3202H24.7254L24.5953 14.0511H24.1287L23.8899 15.3068C23.8792 15.3631 23.8792 15.4032 23.8792 15.4313C23.8792 15.5869 23.9659 15.6553 24.1829 15.6553C24.2915 15.6553 24.3673 15.6464 24.4327 15.627L24.3133 16.2927ZM20.71 14.2709C20.71 14.6519 20.9163 14.913 21.4047 15.1098C21.7738 15.2613 21.8386 15.3058 21.8386 15.442C21.8386 15.6306 21.6757 15.7148 21.307 15.7148C21.0355 15.7148 20.775 15.6779 20.4822 15.5948L20.3626 16.29L20.3953 16.2959L20.5689 16.3271C20.6231 16.336 20.6993 16.3448 20.8077 16.3537C21.0248 16.3699 21.1984 16.379 21.3178 16.379C22.2838 16.379 22.7289 16.0605 22.7289 15.3739C22.7289 14.9617 22.5444 14.7185 22.0885 14.5361C21.6977 14.3833 21.6544 14.3506 21.6544 14.2099C21.6544 14.0469 21.8063 13.9638 22.0995 13.9638C22.2838 13.9638 22.5336 13.9817 22.7614 14.01L22.8918 13.313C22.653 13.2803 22.2948 13.2538 22.0885 13.2538C21.0575 13.2538 20.6991 13.7164 20.71 14.2709ZM16.4877 14.9898C16.4193 14.9812 16.3504 14.9768 16.2814 14.9767C15.7714 14.9767 15.5109 15.1307 15.5109 15.4344C15.5109 15.6213 15.641 15.7416 15.8365 15.7416C16.2055 15.7416 16.4769 15.4347 16.4877 14.9898ZM17.1064 16.3301H16.3466L16.3683 16.0175C16.1295 16.2649 15.8256 16.382 15.413 16.382C14.9137 16.382 14.5772 16.047 14.5772 15.5606C14.5772 14.8267 15.1634 14.3998 16.1726 14.3998C16.2812 14.3998 16.4113 14.407 16.5417 14.4234C16.5742 14.3241 16.5852 14.281 16.5852 14.2277C16.5852 14.0275 16.4223 13.9534 15.999 13.9534C15.7385 13.9534 15.4455 13.9859 15.2392 14.0378L15.1196 14.069L15.0329 14.088L15.163 13.4124C15.6186 13.2964 15.9118 13.2521 16.2483 13.2521C17.0296 13.2521 17.4422 13.5575 17.4422 14.1359C17.4422 14.284 17.4314 14.3966 17.3663 14.7318L17.1817 15.7992L17.1492 15.9905L17.1275 16.143L17.1058 16.2484V16.3301H17.1064ZM19.6463 14.4738C19.6463 14.4116 19.6573 14.3599 19.6573 14.3211C19.6573 14.0764 19.4944 13.9326 19.2229 13.9326C18.9299 13.9326 18.7236 14.1254 18.6477 14.4721L19.6463 14.4738ZM20.0914 16.2647C19.787 16.3467 19.473 16.3877 19.1578 16.3864C18.1377 16.3864 17.6164 15.9238 17.6164 15.0387C17.6164 14.0053 18.2893 13.2449 19.2012 13.2449C19.95 13.2449 20.4278 13.6704 20.4278 14.3388C20.4278 14.5614 20.3951 14.7761 20.3082 15.0815H18.5066C18.4956 15.1273 18.4956 15.1484 18.4956 15.1765C18.4956 15.5245 18.7671 15.7025 19.2989 15.7025C19.6243 15.7025 19.9176 15.645 20.2432 15.5127L20.0914 16.2647ZM28.8611 14.6059C28.8611 14.2916 28.7309 13.9935 28.362 13.9935C27.8954 13.9935 27.6132 14.5422 27.6132 15.0254C27.6132 15.4332 27.8085 15.7074 28.1342 15.7013C28.3295 15.7013 28.7529 15.433 28.8288 14.9645C28.8503 14.8563 28.8611 14.7367 28.8611 14.6059ZM29.7837 14.966C29.6534 15.9666 28.948 16.4102 28.0146 16.4102C26.9943 16.4102 26.5819 15.7876 26.5819 15.024C26.5819 13.9566 27.2765 13.2346 28.3622 13.2346C29.3062 13.2346 29.8057 13.829 29.8057 14.5928C29.8057 14.7778 29.8057 14.7911 29.7837 14.966Z" fill="#231F20"/>
</g>
<path id="Vector_5" fill-rule="evenodd" clip-rule="evenodd" d="M30.0877 15.8674H30.1202C30.1202 15.8674 30.1311 15.8674 30.1419 15.8632C30.1524 15.8585 30.1526 15.8484 30.1526 15.8393C30.1526 15.8319 30.1526 15.8231 30.1419 15.8186C30.1419 15.8144 30.1202 15.8144 30.1094 15.8144H30.0877V15.8674ZM30.0877 15.9847H30.044V15.7771H30.1309C30.1419 15.7771 30.1636 15.7788 30.1851 15.7891C30.1986 15.8031 30.2063 15.8216 30.2066 15.841C30.2066 15.8632 30.1959 15.8855 30.1742 15.8944L30.2066 15.9849H30.1524L30.12 15.9032H30.0877V15.9847ZM30.1202 16.0602C30.218 16.0602 30.294 15.98 30.294 15.8807C30.2944 15.8575 30.2902 15.8346 30.2816 15.8131C30.2731 15.7915 30.2604 15.772 30.2442 15.7554C30.228 15.7388 30.2088 15.7257 30.1875 15.7166C30.1662 15.7075 30.1433 15.7028 30.1202 15.7026C30.0225 15.7026 29.9356 15.7828 29.9356 15.8807C29.9356 15.9802 30.0225 16.0602 30.1202 16.0602ZM29.8814 15.8807C29.8814 15.7516 29.99 15.6465 30.1202 15.6465C30.2505 15.6465 30.3589 15.7516 30.3589 15.8807C30.3589 16.0112 30.2505 16.1163 30.1202 16.1163C30.0573 16.1165 29.9969 16.0919 29.9522 16.0477C29.9074 16.0036 29.882 15.9435 29.8814 15.8807ZM14.3929 16.1163H13.4812L14.0237 13.2714L12.7754 16.1163H11.9506L11.7988 13.2893L11.256 16.1163H10.4313L11.1366 12.416H12.5584L12.6233 14.7081L13.6329 12.416H15.109L14.3929 16.1163ZM24.5413 16.0811C24.2917 16.1492 24.0962 16.1787 23.8899 16.1787C23.4233 16.1787 23.1734 15.9446 23.1734 15.5179C23.1734 15.4331 23.1843 15.3428 23.1953 15.2479L23.2495 14.9525L23.2928 14.7138L23.7163 12.416H24.617L24.4869 13.1068H24.9537L24.8233 13.8392H24.3565L24.1179 15.0949C24.107 15.1498 24.107 15.1911 24.107 15.2194C24.107 15.3755 24.2046 15.4419 24.4217 15.4419C24.5194 15.4419 24.5955 15.4331 24.6605 15.4136L24.5413 16.0811Z" fill="white"/>
<path id="Vector_6" fill-rule="evenodd" clip-rule="evenodd" d="M26.8749 13.9713L26.8534 13.8764L27.0377 13.4051C26.9941 13.4005 26.9726 13.3992 26.9726 13.3963C26.9184 13.3857 26.8966 13.38 26.8857 13.38C26.8572 13.3741 26.8282 13.3716 26.7992 13.3727C26.4954 13.3727 26.2887 13.5045 26.0067 13.8603L26.1046 13.3252H25.1602L24.6065 16.3302H25.5076C25.6268 15.6409 25.6812 15.2481 25.7571 14.9218C25.8765 14.3807 26.2782 14.1346 26.5714 14.1894C26.6036 14.1953 26.6254 14.1953 26.6688 14.2118L26.723 14.2322L26.8749 13.9713Z" fill="#231F20"/>
<path id="Vector_7" fill-rule="evenodd" clip-rule="evenodd" d="M27.1894 13.1319C27.1135 13.1024 27.1029 13.1024 27.092 13.0995C27.0483 13.0889 27.016 13.0815 27.016 13.0815C26.9836 13.0768 26.9509 13.0744 26.9181 13.0742C26.6252 13.0742 26.4081 13.2077 26.1259 13.5635L26.2128 13.1068H25.388L24.8341 16.1163H25.746C26.0714 14.2765 26.2126 13.9533 26.6467 13.9533C26.6794 13.9533 26.7118 13.9563 26.7553 13.9607L26.8639 13.9829L27.1894 13.1319ZM20.9376 14.0588C20.9376 14.4381 21.1549 14.7007 21.6432 14.8979C22.0124 15.0477 22.0666 15.092 22.0666 15.2301C22.0666 15.4168 21.9039 15.5012 21.5456 15.5012C21.2633 15.5012 21.0136 15.4641 20.7208 15.3827L20.5904 16.0766L20.6339 16.0838L20.7967 16.1133C20.8509 16.1239 20.9381 16.1327 21.0463 16.1403C21.2633 16.1566 21.426 16.1652 21.5456 16.1652C22.5222 16.1652 22.9673 15.848 22.9673 15.1616C22.9673 14.7482 22.7829 14.5064 22.3161 14.324C21.9364 14.1712 21.8926 14.1373 21.8926 13.9962C21.8926 13.8346 22.0446 13.7515 22.3376 13.7515C22.522 13.7515 22.761 13.7679 22.9998 13.796L23.1299 13.0995C22.8911 13.0668 22.533 13.04 22.3161 13.04C21.296 13.04 20.9376 13.5028 20.9376 14.0588ZM16.6832 14.7762C16.6148 14.768 16.5459 14.7641 16.4769 14.7644C15.9667 14.7644 15.7062 14.9184 15.7062 15.2221C15.7062 15.4092 15.8256 15.5293 16.0319 15.5293C16.401 15.5293 16.6615 15.2209 16.6832 14.7762ZM17.3452 16.1163H16.5854L16.6071 15.8052C16.3793 16.0524 16.0644 16.1682 15.6518 16.1682C15.1634 16.1682 14.827 15.833 14.827 15.3468C14.827 14.6142 15.413 14.186 16.4223 14.186C16.52 14.186 16.6501 14.1947 16.7912 14.2096C16.813 14.1103 16.8237 14.0689 16.8237 14.0141C16.8237 13.8154 16.6609 13.7413 16.2375 13.7413C15.977 13.7413 15.6838 13.7724 15.4887 13.8242L15.3583 13.8569L15.2824 13.8763L15.402 13.1986C15.8576 13.083 16.1508 13.0402 16.4873 13.0402C17.2686 13.0402 17.6812 13.3456 17.6812 13.9223C17.6812 14.0706 17.6704 14.1833 17.6162 14.5182L17.4207 15.5873L17.3882 15.7786L17.3665 15.9313L17.3555 16.0347L17.3452 16.1163ZM19.8416 14.2617V14.1075C19.8416 13.8628 19.6897 13.7205 19.4183 13.7205C19.1253 13.7205 18.919 13.9116 18.8321 14.2603L19.8416 14.2617ZM20.3194 16.0526C20.0185 16.1338 19.7082 16.1747 19.3965 16.1743C18.3764 16.1743 17.8445 15.7117 17.8445 14.8251C17.8445 13.7935 18.5173 13.0328 19.429 13.0328C20.1778 13.0328 20.6554 13.4583 20.6554 14.1255C20.6554 14.3478 20.6227 14.5642 20.5466 14.8694H18.7452C18.7342 14.9154 18.7342 14.9363 18.7342 14.9644C18.7342 15.3128 19.0055 15.4909 19.5265 15.4909C19.8522 15.4909 20.1452 15.4314 20.4706 15.2993L20.3194 16.0526ZM29.0781 14.367C29.0781 14.0527 28.948 13.7548 28.5791 13.7548C28.1125 13.7548 27.8302 14.3033 27.8302 14.7868C27.8302 15.196 28.0258 15.4702 28.3513 15.4641C28.5468 15.4641 28.9699 15.1958 29.0459 14.7273C29.0674 14.6176 29.0781 14.4976 29.0781 14.367ZM30.0225 14.7528C29.8812 15.7533 29.1866 16.1979 28.2534 16.1979C27.2223 16.1979 26.8097 15.5736 26.8097 14.8102C26.8097 13.7443 27.5151 13.021 28.6008 13.021C29.5447 13.021 30.0442 13.6154 30.0442 14.379C30.0442 14.5657 30.0442 14.5777 30.0225 14.7528Z" fill="white"/>
</g>
</g>
</g>
</svg>
