<svg width="16" height="16" viewBox="0 0 16 16" fill="none" xmlns="http://www.w3.org/2000/svg">
<g id="Frame" clip-path="url(#clip0_95_8995)">
<g id="Group">
<path id="Vector" d="M11.0791 0H11.1929C11.2842 1.12835 10.8536 1.97146 10.3301 2.582C9.81654 3.18834 9.11325 3.7764 7.97576 3.68717C7.89988 2.57498 8.33127 1.79441 8.85399 1.18526C9.33878 0.617573 10.2275 0.112414 11.0791 0ZM14.5225 11.7444V11.776C14.2028 12.7442 13.7468 13.574 13.1904 14.344C12.6824 15.0431 12.0599 15.9838 10.9484 15.9838C9.98797 15.9838 9.35002 15.3663 8.36569 15.3494C7.32446 15.3325 6.75185 15.8658 5.79985 16H5.47526C4.77618 15.8988 4.212 15.3452 3.80099 14.8464C2.58903 13.3723 1.65248 11.4683 1.47824 9.03175V8.31581C1.55201 6.57199 2.39933 5.15417 3.52558 4.46704C4.11997 4.1017 4.93707 3.79045 5.84692 3.92957C6.23686 3.98999 6.63523 4.12348 6.98441 4.25557C7.31533 4.38273 7.72915 4.60826 8.1212 4.59632C8.38677 4.58859 8.65095 4.45018 8.91863 4.35252C9.70272 4.06938 10.4713 3.74479 11.4845 3.89725C12.7021 4.08132 13.5662 4.62232 14.1002 5.45699C13.0702 6.1125 12.2559 7.10034 12.395 8.78725C12.5187 10.3196 13.4096 11.2161 14.5225 11.7444Z" fill="#2E2D2E"/>
</g>
</g>
<defs>
<clipPath id="clip0_95_8995">
<rect width="16" height="16" fill="white"/>
</clipPath>
</defs>
</svg>
