<svg width="16" height="16" viewBox="0 0 16 16" fill="none" xmlns="http://www.w3.org/2000/svg">
<g id="Frame" clip-path="url(#clip0_95_9653)">
<g id="Group">
<path id="Vector" d="M3.54594 9.66893L2.989 11.7481L0.953406 11.7911C0.345063 10.6628 0 9.3718 0 7.99993C0 6.67333 0.322625 5.42233 0.8945 4.3208H0.894937L2.70719 4.65305L3.50106 6.45443C3.33491 6.93883 3.24434 7.45883 3.24434 7.99993C3.24441 8.58718 3.35078 9.14983 3.54594 9.66893Z" fill="#FBBB00"/>
<path id="Vector_2" d="M15.8602 6.50537C15.9521 6.98931 16 7.48909 16 7.99987C16 8.57262 15.9398 9.13131 15.8251 9.67021C15.4356 11.5041 14.418 13.1054 13.0084 14.2386L13.0079 14.2381L10.7253 14.1217L10.4022 12.1049C11.3376 11.5564 12.0686 10.6979 12.4537 9.67021H8.17587V6.50537H15.8602Z" fill="#518EF8"/>
<path id="Vector_3" d="M13.0079 14.2382L13.0083 14.2386C11.6374 15.3406 9.89581 15.9999 7.99999 15.9999C4.9534 15.9999 2.30462 14.2971 0.9534 11.7911L3.54593 9.66895C4.22152 11.472 5.96087 12.7555 7.99999 12.7555C8.87646 12.7555 9.69759 12.5186 10.4022 12.105L13.0079 14.2382Z" fill="#28B446"/>
<path id="Vector_4" d="M13.1064 1.84175L10.5147 3.9635C9.7855 3.50769 8.9235 3.24437 8 3.24437C5.91472 3.24437 4.14284 4.58678 3.50109 6.4545L0.894938 4.32087H0.894501C2.22594 1.75384 4.90813 0 8 0C9.94109 0 11.7209 0.691437 13.1064 1.84175Z" fill="#F14336"/>
</g>
</g>
<defs>
<clipPath id="clip0_95_9653">
<rect width="16" height="16" fill="white"/>
</clipPath>
</defs>
</svg>
