<svg width="40" height="28" viewBox="0 0 40 28" fill="none" xmlns="http://www.w3.org/2000/svg">
<g id="Group 108">
<rect id="Rectangle 95" width="40" height="28" rx="3" fill="white"/>
<g id="Group 107">
<path id="Vector" d="M11 12.833C11 11.6064 11.1051 10.8283 13.7053 8.93264C15.8564 7.36331 22.7542 2 22.7542 2V10.9531H28V23.8387H12.6389C11.7374 23.8387 11 23.1177 11 22.2378V12.833Z" fill="#FFDB4D"/>
<path id="Vector_2" d="M22.7528 10.9541V16.1414L13.1135 22.5573L25.3005 18.6832V10.9541H22.7528Z" fill="white"/>
<path id="Vector_3" d="M18.3537 10.6834C18.9171 10.0274 19.7405 9.7956 20.1923 10.1666C20.6447 10.5369 20.5541 11.3695 19.9901 12.0255C19.4267 12.6821 18.6033 12.9133 18.1515 12.5423C17.6991 12.1719 17.7904 11.3393 18.3537 10.6834Z" fill="white"/>
</g>
</g>
</svg>
