<svg width="40" height="28" viewBox="0 0 40 28" fill="none" xmlns="http://www.w3.org/2000/svg">
<g id="Group 110">
<rect id="Rectangle 96" width="40" height="28" rx="3" fill="white"/>
<g id="Group 109">
<path id="Vector" d="M19.4909 6C20.8236 6 22.0864 6.31095 23.2109 6.86178C23.388 6.94555 23.5638 7.03757 23.7408 7.13974L22.959 7.83907L21.785 6.62445L19.8019 8.39249L18.6247 7.10801L14.9332 10.4359L17.3003 13.0441L16.37 13.8627L18.7015 16.4754L17.7769 17.2915L21.1085 21.0001L23.0859 19.1788L24.7955 21.1301C24.4554 21.3948 24.0848 21.6435 23.6767 21.8733C22.402 22.6013 20.959 22.9837 19.4909 22.9825C14.8139 22.9819 11 19.1673 11 14.491C11 9.81399 14.8139 6 19.4909 6Z" fill="#0068A3"/>
<path id="Vector_2" d="M17.8516 13.9856L19.8709 12.1675L21.6891 14.1868L19.6698 16.0049L17.8516 13.9856Z" fill="#0068A3"/>
<path id="Vector_3" d="M19.3985 17.4108L21.4178 15.5933L23.2359 17.6126L21.2173 19.4307L19.3985 17.4108Z" fill="#0068A3"/>
<path id="Vector_4" d="M16.4833 10.5592L18.5026 8.7417L20.3201 10.761L18.3008 12.5785L16.4833 10.5592Z" fill="#0068A3"/>
<path id="Vector_5" d="M20.0826 9.58919L21.5968 8.22607L22.9605 9.74023L21.4459 11.104L20.0826 9.58919Z" fill="#0068A3"/>
<path id="Vector_6" d="M22.8194 15.7597L24.3342 14.396L25.6973 15.9108L24.1831 17.2739L22.8194 15.7597Z" fill="#0068A3"/>
<path id="Vector_7" d="M24.1877 18.8437L25.7019 17.48L27.0656 18.9941L25.5508 20.3579L24.1877 18.8437Z" fill="#0068A3"/>
<path id="Vector_8" d="M24.7034 11.8765L25.713 10.9678L26.6218 11.9774L25.6128 12.8862L24.7034 11.8765Z" fill="#0068A3"/>
<path id="Vector_9" d="M23.5135 8.79253L24.5232 7.88379L25.4319 8.89343L24.4223 9.80218L23.5135 8.79253Z" fill="#0068A3"/>
<path id="Vector_10" d="M26.0816 14.7916L27.0913 13.8828L28 14.8925L26.9904 15.8012L26.0816 14.7916Z" fill="#0068A3"/>
<path id="Vector_11" d="M21.6196 12.5049L23.1338 11.1411L24.4969 12.6553L22.9834 14.019L21.6196 12.5049Z" fill="#0068A3"/>
</g>
</g>
</svg>
