<svg width="40" height="28" viewBox="0 0 40 28" fill="none" xmlns="http://www.w3.org/2000/svg">
<g id="Group 111">
<rect id="Rectangle 97" width="40" height="28" rx="3" fill="white"/>
<path id="Vector" d="M27.8431 22.4621C27.3591 21.4668 26.5012 20.7367 25.5707 20.1767C25.2483 19.982 24.8845 19.8452 24.5672 19.7404C23.8373 19.5016 23.1312 19.446 22.3073 19.304C21.6386 19.1884 21.1094 18.9101 20.5421 18.5207C20.2469 18.3168 20.0049 18.0368 19.8032 17.7402C19.7652 17.6806 19.5765 17.4481 19.5958 17.368C19.5958 17.368 19.4643 17.9005 19.7244 18.6472C17.3297 18.5384 15.2296 17.1968 14.268 15.5699C12.4977 12.5762 13.1216 8.94808 15.4818 7.3453C17.8414 5.74255 21.4397 6.87349 23.3658 9.76636C24.5751 11.5822 24.8845 13.6946 24.3666 15.4125C24.3626 15.4262 24.3575 15.4388 24.3541 15.4525C23.3307 14.7001 22.3957 15.0838 22.3957 15.0838C23.4214 14.9767 24.2323 15.8013 24.2323 15.8013C24.3513 15.9083 24.4657 16.0269 24.57 16.1586C24.5927 16.1907 24.617 16.2227 24.6403 16.2577C24.9089 16.6259 25.0766 17.0359 25.1474 17.4516C27.184 14.8404 27.5206 11.2254 25.7186 8.41725C23.4236 4.83837 18.5287 3.92446 14.7904 6.37301C11.0499 8.82382 9.87914 13.7095 12.1758 17.2878C14.0623 20.2323 18.4874 21.1301 21.0238 20.3187C21.9832 20.0141 25.267 19.7243 27.5529 22.4523C27.5529 22.4523 27.7501 22.6808 27.8578 22.9408C27.8578 22.9408 27.889 23.0324 27.974 22.9877C27.9966 22.9763 28.0584 22.9018 27.8431 22.4621ZM23.1363 17.6297C23.1335 17.6279 23.1318 17.6279 23.129 17.6257C23.1233 17.6257 23.1199 17.6239 23.1165 17.6222C23.1108 17.6205 23.1057 17.6176 23.1006 17.6165C23.0978 17.6165 23.0927 17.6165 23.0916 17.6153L23.0661 17.6073C22.9633 17.5866 22.8565 17.606 22.7674 17.6617C22.5691 17.798 22.5385 18.1061 22.7011 18.3512C22.7732 18.4579 22.8761 18.5396 22.9958 18.5848C22.9992 18.5854 23.0037 18.5882 23.0071 18.5882C23.0128 18.5905 23.0179 18.5905 23.0224 18.5922C23.027 18.5922 23.0292 18.594 23.0321 18.5957C23.0411 18.5974 23.0479 18.6008 23.0564 18.6014C23.1074 18.6132 23.1602 18.6145 23.2117 18.6052C23.2633 18.596 23.3123 18.5764 23.3562 18.5476C23.5557 18.4113 23.5857 18.1049 23.4231 17.8599C23.3543 17.7542 23.2538 17.6735 23.1363 17.6297ZM24.4623 17.0645C24.2946 17.0015 24.2799 17.2019 24.3218 17.3319C24.4153 17.6371 24.5422 17.8702 24.6352 17.9171C24.7236 17.9715 24.829 17.8461 24.7621 17.5403C24.7332 17.4086 24.6329 17.1315 24.4623 17.0645Z" fill="#FF9900"/>
</g>
</svg>
