<svg width="80" height="80" fill="none" xmlns="http://www.w3.org/2000/svg"><path d="M54.36 44.965l-.603-1.775c2.009-.684 3.7-1.409 4.892-2.096 1.876-1.083 2.645-3.168 1.83-4.958-.468-1.025-.973-1.929-1.462-2.802-1.77-3.163-3.441-6.15-3.123-14.02C55.885 10.557 48.758 3.436 40 3.436s-15.884 7.12-15.895 15.876c.32 7.872-1.352 10.858-3.122 14.02-.49.874-.995 1.778-1.462 2.803-.815 1.79-.045 3.875 1.83 4.958 1.153.665 2.783 1.369 4.714 2.035l-.611 1.772c-2.043-.704-3.785-1.459-5.04-2.183-2.73-1.577-3.823-4.672-2.599-7.36.5-1.095 1.024-2.033 1.531-2.94 1.71-3.054 3.186-5.692 2.885-13.047v-.039c0-9.798 7.97-17.77 17.769-17.77 9.798 0 17.77 7.972 17.77 17.77l-.001.038c-.301 7.356 1.175 9.994 2.884 13.048.508.907 1.032 1.845 1.532 2.94 1.224 2.688.131 5.783-2.6 7.36-1.294.747-3.101 1.524-5.225 2.247zM40 51.49a40.92 40.92 0 01-9.643-1.162l.44-1.822a38.76 38.76 0 0018.405 0l.441 1.822A40.923 40.923 0 0140 51.491z" fill="#2E2D2E"/><path d="M40 38.836c-7.01 0-12.713-5.703-12.713-12.713V20.82a.938.938 0 01.938-.938c4.731 0 11.325-2.11 14.774-6.142a.935.935 0 011.375-.054c.41.41.83.854 1.276 1.324 1.917 2.025 4.09 4.32 6.358 4.902a.938.938 0 01.705.908v5.304c0 7.01-5.703 12.713-12.713 12.713zM29.162 21.732v4.391c0 5.976 4.862 10.838 10.838 10.838 5.976 0 10.837-4.862 10.837-10.838v-4.619c-2.504-.934-4.73-3.285-6.55-5.206l-.557-.587c-3.83 3.88-9.93 5.791-14.568 6.021zm21.956 39.672l-1.422-1.222 1.814-2.109-2.208-2.207a.937.937 0 01.15-1.448l6.903-4.509-4.123-4.975-6.504 16.208-1.74-.698 6.982-17.4.985.395.873-.724 5.64 6.806a.938.938 0 01-.209 1.384l-6.815 4.451 2.006 2.006a.938.938 0 01.048 1.274l-2.38 2.768zm-22.236 0l-2.38-2.768a.937.937 0 01.048-1.274l2.005-2.006-6.814-4.452a.935.935 0 01-.21-1.383l5.631-6.795.832.69 1.02-.41 6.998 17.438-1.74.698-6.504-16.208-4.123 4.975 6.902 4.509a.935.935 0 01.15 1.448l-2.207 2.207 1.814 2.109-1.422 1.222z" fill="#2E2D2E"/><path d="M60.748 77.587l-1.867-.174 1.243-13.291a2.166 2.166 0 00-.556-1.681 2.166 2.166 0 00-1.622-.71H22.054c-.629 0-1.205.252-1.622.71a2.166 2.166 0 00-.556 1.68l1.243 13.292-1.867.174-1.243-13.29a4.074 4.074 0 011.037-3.119 4.074 4.074 0 013.008-1.322h35.892c1.146 0 2.242.482 3.008 1.322a4.074 4.074 0 011.036 3.118l-1.242 13.291z" fill="#2E2D2E"/><path d="M40 75.316a4.314 4.314 0 01-4.31-4.31 4.314 4.314 0 014.31-4.31 4.314 4.314 0 014.31 4.31 4.314 4.314 0 01-4.31 4.31zm0-6.745a2.437 2.437 0 00-2.435 2.435A2.437 2.437 0 0040 73.44a2.437 2.437 0 002.434-2.435A2.437 2.437 0 0040 68.571z" fill="#A80055"/><path d="M40 35.312a2.532 2.532 0 01-2.529-2.529A2.532 2.532 0 0140 30.254a2.532 2.532 0 012.529 2.53A2.531 2.531 0 0140 35.311zm0-3.183a.654.654 0 10.002 1.31.654.654 0 00-.002-1.31z" fill="#2E2D2E"/><path d="M41.674 33.722l-.096-.001.027-1.875c1.685.032 7.004-.828 9.284-4.928l1.639.91c-2.698 4.853-8.654 5.894-10.854 5.894zM69.75 78.437H10.248a.938.938 0 01-.937-.937V59.15c0-5.403 3.071-10.114 8.016-12.294l9.682-4.27c2.495-1.1 4.153-3.083 4.795-5.733l.352-1.448 1.822.442-.351 1.448c-.774 3.192-2.856 5.68-5.861 7.006l-9.683 4.27c-4.319 1.904-6.897 5.86-6.897 10.58v17.411h57.626V59.151c0-4.72-2.579-8.676-6.897-10.58l-9.683-4.27c-3.006-1.325-5.087-3.814-5.861-7.006l-.351-1.448 1.822-.442.351 1.448c.642 2.65 2.3 4.633 4.795 5.733l9.683 4.27c4.944 2.18 8.016 6.891 8.016 12.295V77.5a.936.936 0 01-.938.938z" fill="#2E2D2E"/></svg>