<svg width="80" height="80" fill="none" xmlns="http://www.w3.org/2000/svg"><path d="M54.841 78.281H15.04c-4.362 0-7.91-3.548-7.91-7.91V16.027c0-4.362 3.548-7.91 7.91-7.91h10.208v1.562H15.04a6.355 6.355 0 00-6.348 6.348V70.37c0 3.5 2.848 6.348 6.348 6.348h39.8c3.5 0 6.348-2.848 6.348-6.348V43.559h1.563v26.812c0 4.362-3.55 7.91-7.911 7.91zm7.91-44.15H61.19V16.027c0-3.5-2.848-6.348-6.348-6.348h-10.21V8.116h10.209c4.362 0 7.91 3.549 7.91 7.91v18.105z" fill="#2E2D2E"/><path d="M54.841 74.481H15.04a4.115 4.115 0 01-4.11-4.11V16.027a4.115 4.115 0 014.11-4.11h10.208v1.562H15.04a2.55 2.55 0 00-2.548 2.548V70.37a2.55 2.55 0 002.548 2.548h39.8a2.55 2.55 0 002.548-2.548V50.14h1.563v20.23a4.115 4.115 0 01-4.11 4.11zm4.11-33.768H57.39V16.027a2.55 2.55 0 00-2.548-2.548h-10.21v-1.563h10.209a4.115 4.115 0 014.11 4.11v24.687z" fill="#2E2D2E"/><path d="M42.321 15.307H27.56a3.16 3.16 0 01-3.157-3.156V9.444a3.16 3.16 0 013.157-3.156h2.087a5.359 5.359 0 015.293-4.57 5.359 5.359 0 015.294 4.57h2.087a3.16 3.16 0 013.156 3.156v2.707a3.16 3.16 0 01-3.156 3.156zM27.56 7.85c-.88 0-1.594.715-1.594 1.594v2.707c0 .879.715 1.593 1.593 1.593h14.762c.879 0 1.594-.715 1.594-1.593V9.444c0-.879-.715-1.593-1.594-1.593H39.51a.781.781 0 01-.782-.782 3.793 3.793 0 00-3.788-3.788 3.792 3.792 0 00-3.788 3.788.781.781 0 01-.781.782H27.56z" fill="#2E2D2E"/><path fill-rule="evenodd" clip-rule="evenodd" d="M34.94 7.965a1.27 1.27 0 001.267-1.267 1.27 1.27 0 00-1.267-1.267 1.27 1.27 0 00-1.266 1.267 1.27 1.27 0 001.266 1.267z" fill="#2E2D2E"/><path d="M42.493 31.549h-10.65a.781.781 0 110-1.563h10.65a.782.782 0 010 1.563zm10.65-4.42h-21.3a.781.781 0 110-1.563h21.3a.782.782 0 010 1.562zm-10.65 19.975h-10.65a.781.781 0 110-1.562h10.65a.781.781 0 010 1.562zm10.65-4.42h-21.3a.781.781 0 110-1.563h21.3a.781.781 0 110 1.563zM22.7 64.222h-4.38a2.367 2.367 0 01-2.365-2.364v-4.379a2.367 2.367 0 012.365-2.364h4.38c.312 0 .616.06.903.179a.78.78 0 11-.599 1.443.79.79 0 00-.304-.06h-4.38a.803.803 0 00-.802.802v4.379a.803.803 0 00.802.802h4.38a.803.803 0 00.802-.802v-.351a.781.781 0 111.562 0v.35a2.367 2.367 0 01-2.364 2.365zm0-15.555h-4.38a2.367 2.367 0 01-2.365-2.365v-4.379a2.367 2.367 0 012.365-2.364h4.38c.312 0 .616.06.903.18a.78.78 0 11-.599 1.443.79.79 0 00-.304-.06h-4.38a.803.803 0 00-.802.801v4.379a.804.804 0 00.802.802h4.38a.803.803 0 00.802-.802v-.35a.781.781 0 111.562 0v.35a2.367 2.367 0 01-2.364 2.365zm0-15.556h-4.38a2.367 2.367 0 01-2.365-2.364v-4.379a2.367 2.367 0 012.365-2.365h4.38c.312 0 .615.06.903.18a.78.78 0 11-.599 1.443.792.792 0 00-.304-.06h-4.38a.804.804 0 00-.802.802v4.379a.804.804 0 00.802.802h4.38a.803.803 0 00.802-.802v-.351a.781.781 0 111.562 0v.35a2.367 2.367 0 01-2.364 2.365zM42.493 62.66h-10.65a.781.781 0 110-1.563h10.65a.782.782 0 010 1.563zm2.884-4.42H31.842a.782.782 0 010-1.563h13.535a.781.781 0 010 1.563z" fill="#2E2D2E"/><path d="M20.888 61.687a.783.783 0 01-.642-.336l-1.876-2.71a.78.78 0 111.285-.889l1.417 2.047L26 56.162a.783.783 0 011.227.438.781.781 0 01-.3.819l-5.574 4.115a.78.78 0 01-.464.153zm0-15.555a.782.782 0 01-.642-.337l-1.876-2.709a.78.78 0 111.285-.89l1.417 2.048L26 40.606a.781.781 0 11.927 1.257l-5.574 4.116a.782.782 0 01-.464.153zm0-15.556a.783.783 0 01-.642-.337L18.37 27.53a.78.78 0 111.285-.889l1.417 2.047L26 25.051a.783.783 0 011.227.438.781.781 0 01-.3.819l-5.574 4.115a.78.78 0 01-.464.153z" fill="#A80055"/><path d="M47.82 64.135a.782.782 0 01-.777-.862l.592-5.74a.782.782 0 01.101-.31l19.28-33.393a3.116 3.116 0 011.905-1.46 3.116 3.116 0 012.381.311 3.142 3.142 0 011.149 4.287L53.17 60.361a.784.784 0 01-.218.242l-4.675 3.383a.782.782 0 01-.458.149zm1.353-6.276l-.397 3.838 3.126-2.262 19.196-33.248a1.578 1.578 0 00-1.16-2.35 1.561 1.561 0 00-.612.043c-.408.11-.748.37-.958.731L49.173 57.86z" fill="#2E2D2E"/><path d="M48.02 58.29l.782-1.352 4.082 2.357-.78 1.353-4.083-2.357zm16.874-29.225l.782-1.353 4.082 2.357-.781 1.353-4.083-2.357z" fill="#2E2D2E"/></svg>