<svg width="80" height="80" fill="none" xmlns="http://www.w3.org/2000/svg"><mask id="a" style="mask-type:luminance" maskUnits="userSpaceOnUse" x="0" y="0" width="80" height="80"><path d="M0 0h80v80H0V0z" fill="#fff"/></mask><g mask="url(#a)" stroke-width="1.6"><path d="M15.873 58.152h0a.256.256 0 010 .362h0a.256.256 0 01-.363 0s0 0 0 0m.363-.362l-.929-.566a1.056 1.056 0 000 1.494l.566-.566m.363-.362a.256.256 0 00-.363 0s0 0 0 0m.363 0h-.363m0 .362a.256.256 0 010-.362m0 .362v-.362m6.338 5.975h0a.256.256 0 010 .363s0 0 0 0m0-.363l-.928.928a1.056 1.056 0 001.494 0l-.566-.565m0-.363a.256.256 0 00-.362 0h0a.256.256 0 000 .363m.362-.363l-.362.363m.363 0a.256.256 0 01-.363 0m.363 0h-.363" fill="#2E2D2E" stroke="#2E2D2E"/><path d="M44.482 29.543l-2.988 2.988m5.976 5.975l2.987-2.987M26.094 59.881L38.506 47.47m-5.976-5.976L20.118 53.906m-8.161 2.186a8.45 8.45 0 1111.95 11.951l-4.48 4.482A8.45 8.45 0 017.474 60.574l4.482-4.482z" stroke="#2E2D2E" stroke-miterlimit="10" stroke-linecap="round" stroke-linejoin="round"/><path d="M16.439 63.562a4.225 4.225 0 11-5.976 5.975 4.225 4.225 0 015.976-5.976z" stroke="#A80055" stroke-miterlimit="10" stroke-linecap="round" stroke-linejoin="round"/><path d="M54.939 34.024l-8.963-8.963m11.95 5.976l-8.963-8.964-4.482 4.482a2.113 2.113 0 000 2.988l5.976 5.975a2.113 2.113 0 002.988 0L73.143 15.82a6.338 6.338 0 10-8.963-8.964l-12.23 12.23m21.194-3.266L64.18 6.856m8.963 57.324L29.918 20.955c1.129-4.228.038-8.926-3.28-12.243-3.902-3.902-9.716-4.728-14.427-2.477l6.958 6.959-1.494 4.481-4.481 1.494-6.959-6.958c-2.25 4.711-1.426 10.525 2.477 14.428 3.317 3.317 8.015 4.408 12.243 3.28L64.18 73.143a6.338 6.338 0 008.963-8.964z" stroke="#2E2D2E" stroke-miterlimit="10" stroke-linecap="round" stroke-linejoin="round"/><path d="M70.156 67.168a2.112 2.112 0 11-2.988 2.988 2.112 2.112 0 012.988-2.988zm-7.213-1.237a6.307 6.307 0 012.988-2.988L31.027 28.04a17.057 17.057 0 01-2.987 2.988L62.943 65.93z" stroke="#A80055" stroke-miterlimit="10" stroke-linecap="round" stroke-linejoin="round"/></g></svg>