<svg width="80" height="80" fill="none" xmlns="http://www.w3.org/2000/svg"><g clip-path="url(#clip0_249_1472)"><path d="M4 66.985h66.205V75H4v-8.015z" stroke="#2E2D2E" stroke-width="1.6" stroke-miterlimit="10" stroke-linecap="round" stroke-linejoin="round"/><path d="M4 66.985h66.205V75H4v-8.015zM9.174 5H65.03v61.985H9.174V5z" stroke="#2E2D2E" stroke-width="1.6" stroke-miterlimit="10" stroke-linecap="round" stroke-linejoin="round"/><path d="M40.375 10.976h18.68v26.012h-18.68V10.976zm-25.226 0H33.83v26.012H15.15V10.976zm0 32.557H33.83v17.476H15.15V43.533zm25.226 0h18.68v17.476h-18.68V43.533z" stroke="#2E2D2E" stroke-width="1.6" stroke-miterlimit="10" stroke-linecap="round" stroke-linejoin="round"/><mask id="a" style="mask-type:luminance" maskUnits="userSpaceOnUse" x="52" y="15" width="30" height="30"><path d="M81.2 44.2V15.8H52.8v28.4h28.4z" fill="#fff" stroke="#fff" stroke-width="1.6"/></mask><g mask="url(#a)" stroke="#A80055" stroke-width="1.6" stroke-miterlimit="10" stroke-linecap="round" stroke-linejoin="round"><path d="M67 15.879c-2.251 2.25-5.304 3.633-8.487 3.633h-2.06v9.976c0 6.64 4.248 12.534 10.547 14.633a15.425 15.425 0 0010.547-14.633v-9.976h-2.06c-3.183 0-6.236-1.382-8.487-3.633z" fill="#fff"/><path d="M74 30a7 7 0 11-14 0 7 7 0 0114 0z"/><path d="M65 30.667L66 32l3-4"/></g></g><defs><clipPath id="clip0_249_1472"><path fill="#fff" d="M0 0h80v80H0z"/></clipPath></defs></svg>