<svg width="71" height="98" viewBox="0 0 71 98" fill="none" xmlns="http://www.w3.org/2000/svg">
<path d="M66.2493 33.3732L65.3458 33.8019L66.2493 33.3732ZM57.6185 97.3769L66.7951 90.368L56.1369 85.9253L57.6185 97.3769ZM1 1.07422C0.879501 2.06693 0.879483 2.06693 0.879666 2.06695C0.879996 2.06699 0.88038 2.06704 0.881038 2.06712C0.882354 2.06728 0.884472 2.06754 0.887387 2.0679C0.893215 2.06862 0.902228 2.06973 0.914381 2.07125C0.938688 2.07429 0.975555 2.07895 1.02463 2.08527C1.12277 2.0979 1.26971 2.1172 1.46261 2.14355C1.84842 2.19625 2.41796 2.27717 3.14841 2.38945C4.60943 2.61403 6.71346 2.96402 9.27788 3.46467C14.4088 4.46637 21.3724 6.06919 28.7114 8.47338C36.0552 10.8791 43.7438 14.0772 50.3417 18.258C56.9458 22.4427 62.3887 27.5684 65.3458 33.8019L67.1528 32.9446C63.974 26.2439 58.1928 20.8651 51.4122 16.5686C44.6254 12.2681 36.7686 9.00824 29.3341 6.57276C21.8948 4.13575 14.8469 2.51414 9.6611 1.50172C7.06712 0.995306 4.93641 0.640804 3.45228 0.412667C2.71016 0.298589 2.12953 0.216081 1.73331 0.161955C1.53519 0.134891 1.38316 0.114921 1.28007 0.101645C1.22853 0.0950079 1.18922 0.090044 1.16251 0.0867039C1.14915 0.0850339 1.13894 0.0837698 1.13193 0.0829054C1.12842 0.0824733 1.12571 0.082141 1.1238 0.0819079C1.12285 0.0817914 1.12202 0.0816906 1.12154 0.0816325C1.12092 0.0815565 1.1205 0.0815053 1 1.07422ZM65.3458 33.8019C69.1252 41.7686 69.1305 52.142 67.5014 62.2886C65.8773 72.4052 62.6558 82.136 60.1478 88.7112L62.0165 89.4239C64.5491 82.7842 67.8217 72.911 69.4762 62.6057C71.1258 52.3304 71.1944 41.4641 67.1528 32.9446L65.3458 33.8019Z" fill="#A80055"/>
</svg>
