<svg xmlns="http://www.w3.org/2000/svg" width="84" height="25"><path fill="#FFF" d="M14.3 14.5c0 2.4-.1 4.1-.2 5.2-.1 1-.4 1.9-1 2.7-.6.9-1.4 1.5-2.4 1.9-1 .4-2.2.7-3.5.7s-2.4-.2-3.4-.6c-1-.4-1.8-1-2.5-1.9-.6-.9-1-1.7-1.1-2.7S0 17 0 14.6v-4.1c0-2.4.1-4.1.2-5.2.1-1 .4-1.9 1-2.7S2.6 1.1 3.6.7 5.8 0 7.1 0s2.4.2 3.4.6 1.8 1 2.5 1.9c.6.9 1 1.7 1.1 2.7.1 1 .2 2.7.2 5.2v4.1zM8.1 6.6c0-1.1-.1-1.8-.2-2.1-.1-.4-.3-.5-.8-.5-.3 0-.6.1-.7.4-.2.3-.3 1-.3 2.2v11.2c0 1.4.1 2.2.2 2.6.1.3.3.5.8.5s.7-.2.8-.6c0-.4.1-1.3.1-2.7l.1-11zM47.2.4v24.1H41V14.4h-1.8v10.1H33V.4h6.3V9h1.8V.4h6.1zm13.4 0l3.6 24.1h-6.4l-.3-4.3h-2.2l-.3 4.3h-6.4L51.8.4h8.8zm-3.3 15.5c-.3-2.7-.6-6.1-.9-10.1-.6 4.6-1 8-1.2 10.1h2.1zM70.5.4h6.3c1.7 0 3 .2 4 .4.9.3 1.6.7 2.1 1.1.4.5.8 1.1.9 1.8.1.8.2 1.9.2 3.4v2.1c0 1.5-.2 2.7-.5 3.4-.3.7-.9 1.2-1.7 1.6-.9.3-2 .6-3.3.6h-1.6v9.7h-6.3V.4h-.1zm6.3 4.2v6.1h.4c.6 0 .9-.2 1.2-.4.3-.3.3-.9.3-1.7v-2c0-.9-.1-1.4-.3-1.6-.2-.4-.8-.4-1.6-.4zM31.5.4l-3.6 10.8 3.9 13.1h-6.4L22.8 14v10.3h-6.3V.3h6.3v9.5L25.6.4h5.9z"/></svg>