<svg width="30" height="30" fill="none" xmlns="http://www.w3.org/2000/svg"><g clip-path="url(#clip0_95_730)" fill="#A80055"><path d="M16.668.516V7.08h6.564L16.668.516z"/><path d="M14.909 8.84V0H0v29.062h16.631a8.748 8.748 0 01-2.457-6.097 8.773 8.773 0 012.575-6.217 8.775 8.775 0 017.057-2.535V8.839H14.91zM4.385 8.82h7.034v1.758H4.385V8.82zm7.034 12.309H4.385v-1.758h7.034v1.758zm1.758-3.517H4.385v-1.758h8.792v1.758zm4.474-3.517H4.385v-1.758h13.266v1.758z"/><path d="M22.966 15.932a7.034 7.034 0 100 14.068 7.034 7.034 0 000-14.068zm-.744 9.657l-2.498-2.571 1.26-1.226 1.326 1.363 2.767-2.467L26.247 22l-4.025 3.59z"/></g><defs><clipPath id="clip0_95_730"><path fill="#fff" d="M0 0h30v30H0z"/></clipPath></defs></svg>