<svg width="30" height="30" fill="none" xmlns="http://www.w3.org/2000/svg"><g clip-path="url(#clip0_95_681)" fill="#A80055"><path d="M25.607 4.393A14.902 14.902 0 0015 0C10.993 0 7.226 1.56 4.393 4.393A14.902 14.902 0 000 15c0 4.007 1.56 7.773 4.393 10.607A14.902 14.902 0 0015 30c4.007 0 7.773-1.56 10.607-4.393A14.902 14.902 0 0030 15c0-4.007-1.56-7.774-4.393-10.607zM15 27.056C8.352 27.056 2.944 21.648 2.944 15v-.054c.03-6.568 5.338-11.912 11.892-12l.041-.002.025.002.098-.002c6.648 0 12.056 5.408 12.056 12.056 0 6.648-5.408 12.056-12.056 12.056z"/><path d="M24.157 15.724a.888.888 0 010-1.775h1.07c-.502-4.926-4.497-8.834-9.462-9.201v.931a.888.888 0 01-1.775 0v-.91c-4.891.48-8.788 4.4-9.228 9.303h.958a.888.888 0 010 1.775h-.966c.409 4.981 4.383 8.967 9.358 9.395v-1.125a.888.888 0 011.776 0v1.125c5.016-.431 9.014-4.48 9.367-9.518h-1.098zm-5.564-3.062l-2.965 2.966a.889.889 0 01-1.255 0L9.21 10.466a.888.888 0 111.255-1.255L15 13.745l2.338-2.338a.888.888 0 111.255 1.255z"/></g><defs><clipPath id="clip0_95_681"><path fill="#fff" d="M0 0h30v30H0z"/></clipPath></defs></svg>