<svg width="30" height="30" fill="none" xmlns="http://www.w3.org/2000/svg"><g clip-path="url(#clip0_95_720)" fill="#A80055"><path d="M6.618 17.863a.776.776 0 000 1.55.776.776 0 000-1.55zm16.764-5.276a.776.776 0 10-.001-1.551.776.776 0 00.001 1.55zm-.826 4.591a.776.776 0 000 1.55.776.776 0 000-1.55zm-11.413 5.206a.776.776 0 10.001 1.551.776.776 0 00-.001-1.551zm8.392-17.58a.776.776 0 000 1.55.776.776 0 000-1.55zm-12.09 8.018a.776.776 0 000-1.55.776.776 0 000 1.55z"/><path d="M22.556 20.486a2.53 2.53 0 01-2.533-2.533 2.533 2.533 0 014.908-.879h4.927A15.3 15.3 0 0030 15c0-4.007-1.56-7.774-4.393-10.607A14.902 14.902 0 0015 0c-.711 0-1.422.05-2.126.15v18.488a.879.879 0 01-.88.88h-3a2.537 2.537 0 01-2.375 1.653 2.536 2.536 0 01-2.533-2.533 2.536 2.536 0 012.533-2.532 2.544 2.544 0 012.375 1.654h2.123V.505a14.84 14.84 0 00-1.67.553v5.383a.88.88 0 01-1.758 0V1.896c-.373.21-1.066.655-1.066.655v5.063a.879.879 0 11-1.758 0v-3.67c-.224.198-.257.236-.47.45a14.91 14.91 0 00-3.902 6.774H5.07a2.532 2.532 0 110 1.758H.142A15.24 15.24 0 000 15c0 4.007 1.56 7.773 4.393 10.607A14.902 14.902 0 0015 30c.643 0 1.285-.04 1.923-.122v-18.25c0-.485.393-.879.879-.879h3.282a2.535 2.535 0 012.298-1.47 2.535 2.535 0 012.533 2.533 2.535 2.535 0 01-2.533 2.533 2.538 2.538 0 01-2.435-1.837H18.68v17.04c.638-.16 1.264-.363 1.874-.606v-6.043a.88.88 0 011.758 0v5.205c.511-.286 1.066-.657 1.066-.657v-5.72a.879.879 0 011.758 0v4.33c.224-.2.256-.236.47-.45a14.91 14.91 0 003.902-6.775H24.93a2.537 2.537 0 01-2.375 1.654zM19.535 8.112a2.518 2.518 0 01-1.259-.336l-2.499 2.087V21.13c0 .323-.177.62-.461.773l-1.666.9a2.535 2.535 0 01-2.507 2.888A2.536 2.536 0 018.61 23.16a2.535 2.535 0 013.623-2.286c.21.101.405.23.58.384l1.206-.651V9.452a.879.879 0 01.316-.675l2.813-2.35a2.535 2.535 0 012.386-3.38 2.535 2.535 0 012.533 2.533 2.536 2.536 0 01-2.532 2.532z"/></g><defs><clipPath id="clip0_95_720"><path fill="#fff" d="M0 0h30v30H0z"/></clipPath></defs></svg>