<svg width="30" height="30" fill="none" xmlns="http://www.w3.org/2000/svg"><g clip-path="url(#clip0_95_662)" fill="#A80055"><path d="M29.73 13.113L15.561.348a.818.818 0 00-1.095 0L.271 13.111a.818.818 0 00.547 1.427h2.419l11.225-9.993a.818.818 0 011.105 0l11.224 9.993h2.39a.818.818 0 00.548-1.426z"/><path d="M4.25 15.83v13.214a.818.818 0 00.818.818H24.96a.818.818 0 00.819-.818V15.83L15.015 6.26 4.25 15.83zm6.588 4.02c.231.397.548.941.548 1.92 0 .98-.317 1.524-.548 1.921-.174.3-.27.465-.27.892a1.023 1.023 0 11-2.046 0c0-.979.317-1.523.548-1.92.174-.3.27-.465.27-.893 0-.427-.096-.592-.27-.892-.231-.397-.548-.942-.548-1.92 0-.98.317-1.524.548-1.921.174-.3.27-.465.27-.892a1.023 1.023 0 112.046 0c0 .979-.317 1.523-.548 1.92-.174.3-.27.465-.27.892 0 .428.096.593.27.892zm8.358 1.028c-.231-.397-.548-.942-.548-1.92 0-.98.317-1.524.548-1.921.174-.3.27-.465.27-.892a1.023 1.023 0 012.046 0c0 .979-.317 1.523-.548 1.92-.174.3-.27.465-.27.892 0 .428.096.593.27.892.231.398.548.942.548 1.921 0 .98-.317 1.524-.548 1.921-.174.3-.27.465-.27.892a1.023 1.023 0 01-2.046 0c0-.979.317-1.523.548-1.92.174-.3.27-.465.27-.893 0-.427-.096-.592-.27-.892zm-2.747-4.733c0 .979-.317 1.523-.548 1.92-.174.3-.27.465-.27.892 0 .428.096.593.27.892.231.398.548.942.548 1.921 0 .98-.317 1.524-.548 1.921-.174.3-.27.465-.27.892a1.023 1.023 0 01-2.046 0c0-.979.317-1.523.548-1.92.174-.3.27-.465.27-.893 0-.427-.096-.592-.27-.892-.231-.397-.548-.942-.548-1.92 0-.98.317-1.524.548-1.921.174-.3.27-.465.27-.892a1.023 1.023 0 012.046 0z"/></g><defs><clipPath id="clip0_95_662"><path fill="#fff" d="M0 0h30v30H0z"/></clipPath></defs></svg>