<svg width="30" height="30" fill="none" xmlns="http://www.w3.org/2000/svg"><path d="M29.964 16.5L27.696 3.636A2.342 2.342 0 0025.393 1.7c-.135 0-19.865 3.466-19.865 3.466A2.341 2.341 0 003.63 7.88l.219 1.24h17.806a4.101 4.101 0 014.097 4.097v6.404l2.314-.408a2.34 2.34 0 001.899-2.712zm-5.969 4.096H0v5.362A2.341 2.341 0 002.341 28.3h19.313a2.341 2.341 0 002.341-2.34v-5.363zM6.97 26.19H2.987a.878.878 0 010-1.756H6.97a.878.878 0 110 1.756z" fill="#A80055"/><path d="M.003 13.102h23.99a2.341 2.341 0 00-2.339-2.227H2.341a2.341 2.341 0 00-2.338 2.227zM0 14.858h23.995v3.982H0v-3.982z" fill="#A80055"/></svg>