<svg width="30" height="30" fill="none" xmlns="http://www.w3.org/2000/svg"><path d="M15.08 9.285A5.722 5.722 0 009.366 15a5.722 5.722 0 005.716 5.716A5.722 5.722 0 0020.797 15a5.722 5.722 0 00-5.716-5.716zm3.394 4.64l-4.094 4.094a.88.88 0 01-1.245 0l-1.565-1.565a.88.88 0 111.245-1.245l.942.943 3.473-3.473a.88.88 0 111.244 1.245z" fill="#A80055"/><path d="M27.825 8.14l-.001-.024c-.014-.31-.023-.62-.027-.932a3.18 3.18 0 00-2.994-3.115c-3.45-.192-6.118-1.317-8.398-3.54l-.019-.018a1.92 1.92 0 00-2.61 0l-.019.019C11.477 2.752 8.81 3.877 5.36 4.07a3.18 3.18 0 00-2.994 3.114c-.004.311-.013.622-.027.932l-.001.055c-.067 3.517-.15 7.894 1.314 11.867.805 2.185 2.024 4.084 3.624 5.646 1.822 1.778 4.208 3.19 7.093 4.195a2.193 2.193 0 00.712.121 2.157 2.157 0 00.714-.122c2.881-1.007 5.265-2.42 7.085-4.197 1.6-1.562 2.819-3.461 3.625-5.647 1.47-3.985 1.386-8.37 1.32-11.894zM15.08 22.477c-4.123 0-7.477-3.354-7.477-7.476 0-4.123 3.354-7.477 7.477-7.477 4.122 0 7.476 3.354 7.476 7.477 0 4.122-3.354 7.476-7.476 7.476z" fill="#A80055"/></svg>