<svg width="22" height="22" viewBox="0 0 22 22" fill="none" xmlns="http://www.w3.org/2000/svg">
<path d="M17.4269 0.646973H4.5763C3.80306 0.646973 3.17542 1.27462 3.17542 2.04786V19.9552C3.17542 20.7284 3.80306 21.3529 4.5763 21.3529H17.4269C18.1969 21.3529 18.8245 20.7284 18.8245 19.9552V2.04786C18.8245 1.27462 18.2001 0.646973 17.4269 0.646973ZM8.21277 18.6837C8.21277 18.9652 7.9863 19.1917 7.70483 19.1917H6.13894C5.85747 19.1917 5.631 18.9652 5.631 18.6837V17.299C5.631 17.0176 5.85747 16.7911 6.13894 16.7911H7.70483C7.9863 16.7911 8.21277 17.0176 8.21277 17.299V18.6837ZM8.21277 14.8014C8.21277 15.0796 7.9863 15.3061 7.70483 15.3061H6.13894C5.85747 15.3061 5.631 15.0796 5.631 14.8014V13.4134C5.631 13.1352 5.85747 12.9087 6.13894 12.9087H7.70483C7.9863 12.9087 8.21277 13.1352 8.21277 13.4134V14.8014ZM8.21277 10.919C8.21277 11.1973 7.9863 11.4237 7.70483 11.4237H6.13894C5.85747 11.4237 5.631 11.1973 5.631 10.919V9.53109C5.631 9.25286 5.85747 9.02315 6.13894 9.02315H7.70483C7.9863 9.02315 8.21277 9.25286 8.21277 9.53109V10.919ZM12.2892 18.6837C12.2892 18.9652 12.0628 19.1917 11.7845 19.1917H10.2154C9.93718 19.1917 9.71071 18.9652 9.71071 18.6837V17.2958C9.71071 17.0176 9.93718 16.7911 10.2154 16.7911H11.7845C12.0628 16.7911 12.2892 17.0176 12.2892 17.2958V18.6837ZM12.2892 14.8014C12.2892 15.0796 12.0628 15.3061 11.7845 15.3061H10.2154C9.93718 15.3061 9.71071 15.0796 9.71071 14.8014V13.4134C9.71071 13.1352 9.93718 12.9087 10.2154 12.9087H11.7845C12.0628 12.9087 12.2892 13.1352 12.2892 13.4134V14.8014ZM12.2892 10.919C12.2892 11.1973 12.0628 11.4237 11.7845 11.4237H10.2154C9.93718 11.4237 9.71071 11.1973 9.71071 10.919V9.53109C9.71071 9.25286 9.93718 9.02315 10.2154 9.02315H11.7845C12.0628 9.02315 12.2892 9.25286 12.2892 9.53109V10.919ZM16.3689 18.6837C16.3689 18.9652 16.1425 19.1917 15.8642 19.1917H14.2951C14.0169 19.1917 13.7904 18.9652 13.7904 18.6837V17.2958C13.7904 17.0176 14.0169 16.7911 14.2951 16.7911H15.8642C16.1425 16.7911 16.3689 17.0176 16.3689 17.2958V18.6837ZM16.3689 14.8014C16.3689 15.0796 16.1425 15.3061 15.8642 15.3061H14.2951C14.0169 15.3061 13.7904 15.0796 13.7904 14.8014V13.4134C13.7904 13.1352 14.0169 12.9087 14.2951 12.9087H15.8642C16.1425 12.9087 16.3689 13.1352 16.3689 13.4134V14.8014ZM16.3689 10.919C16.3689 11.1973 16.1425 11.4237 15.8642 11.4237H14.2951C14.0169 11.4237 13.7904 11.1973 13.7904 10.919V9.53109C13.7904 9.25286 14.0169 9.02315 14.2951 9.02315H15.8642C16.1425 9.02315 16.3689 9.25286 16.3689 9.53109V10.919ZM16.8834 6.09844C16.8834 6.53197 16.5307 6.88462 16.0972 6.88462H5.90277C5.46924 6.88462 5.11659 6.53197 5.11659 6.09844V3.37433C5.11659 2.9408 5.46924 2.59138 5.90277 2.59138H16.0972C16.5307 2.59138 16.8834 2.9408 16.8834 3.37433V6.09844Z" fill="#A80055"/>
</svg>
