<svg width="30" height="30" viewBox="0 0 30 30" fill="none" xmlns="http://www.w3.org/2000/svg">
<path d="M16.6675 0.515869V7.08081H23.2324L16.6675 0.515869Z" fill="#A80055"/>
<path d="M14.9089 8.83912V0.000488281H0V29.0615H16.631C15.8801 28.2819 15.2863 27.3839 14.8655 26.3886C14.4065 25.303 14.1738 24.1518 14.1738 22.9655C14.1738 21.7791 14.4065 20.6279 14.8655 19.5423C15.3086 18.4954 15.9422 17.5552 16.7488 16.7481C17.5559 15.9416 18.4961 15.3079 19.543 14.8648C20.6286 14.4058 21.7798 14.1731 22.9661 14.1731C23.2481 14.1731 23.5283 14.1866 23.8061 14.213V8.83912H14.9089ZM4.38503 8.81978H11.4189V10.5782H4.38503V8.81978ZM11.4189 21.129H4.38503V19.3706H11.4189V21.129ZM13.1774 17.6121H4.38503V15.8536H13.1774V17.6121ZM17.6515 14.0952H4.38503V12.3367H17.6515V14.0952Z" fill="#A80055"/>
<path d="M22.9661 15.9316C19.0817 15.9316 15.9323 19.0811 15.9323 22.9655C15.9323 26.8499 19.0817 29.9994 22.9661 29.9994C26.8506 29.9994 30 26.8499 30 22.9655C30 19.0811 26.8506 15.9316 22.9661 15.9316ZM22.2223 25.5891L19.7235 23.0177L20.9849 21.792L22.3096 23.1554L25.0775 20.6877L26.2474 22.0001L22.2223 25.5891Z" fill="#A80055"/>
</svg>
