<svg width="22" height="22" viewBox="0 0 22 22" fill="none" xmlns="http://www.w3.org/2000/svg">
<g clip-path="url(#clip0_3_22)">
<path d="M11 0C4.93436 0 0 4.93436 0 11C0 17.0656 4.93436 22 11 22C17.0656 22 22 17.0656 22 11C22 4.93436 17.0656 0 11 0Z" fill="#A80055"/>
<path d="M16.5752 8.66901L10.6168 14.6272C10.4381 14.806 10.2034 14.896 9.96876 14.896C9.7341 14.896 9.49945 14.806 9.3207 14.6272L6.34159 11.6481C5.98306 11.2898 5.98306 10.7104 6.34159 10.352C6.69995 9.99348 7.27917 9.99348 7.6377 10.352L9.96876 12.6831L15.2791 7.3729C15.6375 7.01437 16.2167 7.01437 16.5752 7.3729C16.9336 7.73126 16.9336 8.31048 16.5752 8.66901Z" fill="#FAFAFA"/>
</g>
<defs>
<clipPath id="clip0_3_22">
<rect width="22" height="22" fill="white"/>
</clipPath>
</defs>
</svg>
