<svg width="20" height="20" viewBox="0 0 20 20" fill="none" xmlns="http://www.w3.org/2000/svg">
<path d="M19.2169 9.84698C19.2169 10.1452 19.0984 10.4312 18.8876 10.642C18.6767 10.8529 18.3907 10.9714 18.0925 10.9714H10.9714V18.0925C10.9714 18.3907 10.8529 18.6767 10.642 18.8876C10.4312 19.0984 10.1452 19.2169 9.84698 19.2169C9.54877 19.2169 9.26278 19.0984 9.05192 18.8876C8.84105 18.6767 8.72259 18.3907 8.72259 18.0925V10.9714H1.60144C1.30324 10.9714 1.01724 10.8529 0.806377 10.642C0.595513 10.4312 0.477051 10.1452 0.477051 9.84698C0.477051 9.54877 0.595513 9.26278 0.806377 9.05192C1.01724 8.84105 1.30324 8.72259 1.60144 8.72259H8.72259V1.60144C8.72259 1.30324 8.84105 1.01724 9.05192 0.806377C9.26278 0.595513 9.54877 0.477051 9.84698 0.477051C10.1452 0.477051 10.4312 0.595513 10.642 0.806377C10.8529 1.01724 10.9714 1.30324 10.9714 1.60144V8.72259H18.0925C18.3907 8.72259 18.6767 8.84105 18.8876 9.05192C19.0984 9.26278 19.2169 9.54877 19.2169 9.84698Z" fill="white"/>
</svg>
