<svg width="92" height="91" viewBox="0 0 92 91" fill="none" xmlns="http://www.w3.org/2000/svg">
<g opacity="0.4">
<path d="M80.125 34.3218H74.4375V48.5405C74.4375 56.3921 68.0703 62.7593 60.2188 62.7593H34.625V68.4468C34.625 74.7286 39.7182 79.8218 46 79.8218H63.0625L75.4613 90.1446C76.667 91.1484 78.4614 90.9863 79.4652 89.7806C79.892 89.268 80.1255 88.6219 80.125 87.9549V79.8218C86.4068 79.8218 91.5 74.7286 91.5 68.4468V45.6968C91.5 39.4149 86.4068 34.3218 80.125 34.3218Z" fill="#A80055"/>
</g>
<path d="M57.375 0.196777H11.875C5.59316 0.196777 0.5 5.28993 0.5 11.5718V45.6968C0.5 51.9786 5.59316 57.0718 11.875 57.0718V67.9633C11.875 69.5331 13.149 70.8071 14.7188 70.8071C15.3965 70.8071 16.0521 70.5651 16.5672 70.1246L31.7812 57.0718H57.375C63.6568 57.0718 68.75 51.9786 68.75 45.6968V11.5718C68.75 5.28993 63.6568 0.196777 57.375 0.196777ZM21.5722 32.644C21.3222 32.9194 21.035 33.1586 20.7191 33.3549C20.4132 33.563 20.0897 33.7438 19.7522 33.8952C19.4002 34.0262 19.039 34.1307 18.6716 34.208C18.3073 34.2871 17.9353 34.3252 17.5625 34.3218C14.4202 34.3218 11.875 31.7766 11.875 28.6343C11.8153 25.4948 14.3121 22.8984 17.4516 22.8387C17.8611 22.8302 18.2706 22.8672 18.6716 22.9468C19.039 23.0241 19.4002 23.1286 19.7522 23.2596C20.0963 23.4018 20.4205 23.5809 20.7191 23.7999C21.0278 23.9951 21.3139 24.224 21.5722 24.4824C22.118 25.0251 22.5481 25.6728 22.8365 26.3864C23.1249 27.1 23.2656 27.8647 23.25 28.6343C23.2475 29.3801 23.098 30.1181 22.8101 30.8061C22.5222 31.4941 22.1016 32.1186 21.5722 32.644ZM38.6347 32.644C38.1093 33.1733 37.4848 33.594 36.7968 33.8819C36.1088 34.1698 35.3708 34.3193 34.625 34.3218C34.2553 34.3644 33.8856 34.3644 33.5159 34.3218C33.1485 34.2445 32.7873 34.1399 32.4353 34.009C32.0978 33.8575 31.7743 33.6767 31.4684 33.4687C31.1494 33.2647 30.8538 33.0263 30.5869 32.7577C30.0495 32.2161 29.6265 31.572 29.3432 30.8636C29.0598 30.1552 28.9219 29.3971 28.9375 28.6343C28.8948 28.2658 28.8948 27.8937 28.9375 27.5252C29.0148 27.1577 29.1194 26.7965 29.2503 26.4446C29.3925 26.1005 29.5717 25.7763 29.7906 25.4777C29.993 25.1652 30.2213 24.8703 30.4731 24.5962C30.7473 24.3443 31.0422 24.116 31.3547 23.9137C31.654 23.6953 31.9787 23.5138 32.3216 23.3733C32.7069 23.1975 33.1064 23.0548 33.5159 22.9468C36.5957 22.3325 39.5902 24.3345 40.2044 27.4143C40.2841 27.8153 40.321 28.2248 40.3125 28.6343C40.3125 30.1358 39.721 31.5776 38.6631 32.644H38.6347ZM55.6972 32.644C55.4472 32.9194 55.16 33.1586 54.8441 33.3549C54.5382 33.563 54.2147 33.7438 53.8772 33.8952C53.5252 34.0262 53.164 34.1307 52.7966 34.208C52.4323 34.2871 52.0603 34.3252 51.6875 34.3218C48.5452 34.3218 46 31.7766 46 28.6343C45.9403 25.4948 48.4371 22.8984 51.5766 22.8387C51.9861 22.8302 52.3956 22.8672 52.7966 22.9468C53.164 23.0241 53.5252 23.1286 53.8772 23.2596C54.2213 23.4018 54.5455 23.5809 54.8441 23.7999C55.1528 23.9951 55.4389 24.224 55.6972 24.4824C56.243 25.0251 56.6731 25.6728 56.9615 26.3864C57.2499 27.1 57.3906 27.8647 57.375 28.6343C57.3725 29.3801 57.223 30.1181 56.9351 30.8061C56.6472 31.4941 56.2266 32.1186 55.6972 32.644Z" fill="#A80055"/>
</svg>
