<svg width="72" height="26" viewBox="0 0 72 26" fill="none" xmlns="http://www.w3.org/2000/svg">
<g clip-path="url(#clip0_8_64)">
<g clip-path="url(#clip1_8_64)">
<path d="M11.7586 12.6753H9.74888V14.685H11.7586V12.6753Z" fill="#E50141"/>
<path d="M8.99523 12.6753H6.98549V14.685H8.99523V12.6753Z" fill="#E50141"/>
<path d="M14.5216 9.9126H12.5118V11.9223H14.5216V9.9126Z" fill="#E50141"/>
<path d="M11.7586 9.9126H9.74888V11.9223H11.7586V9.9126Z" fill="#E50141"/>
<path d="M8.99523 9.9126H6.98549V11.9223H8.99523V9.9126Z" fill="#E50141"/>
<path d="M6.23183 9.9126H4.22208V11.9223H6.23183V9.9126Z" fill="#E50141"/>
<path d="M14.5216 7.14893H12.5118V9.15867H14.5216V7.14893Z" fill="#585857"/>
<path d="M11.7586 7.14893H9.74888V9.15867H11.7586V7.14893Z" fill="#585857"/>
<path d="M8.99523 7.14893H6.98549V9.15867H8.99523V7.14893Z" fill="#67C1BF"/>
<path d="M6.23183 7.14893H4.22208V9.15867H6.23183V7.14893Z" fill="#67C1BF"/>
<path d="M3.46843 7.14893H1.45868V9.15867H3.46843V7.14893Z" fill="#67C1BF"/>
<path d="M14.5216 4.38574H12.5118V6.39549H14.5216V4.38574Z" fill="#585857"/>
<path d="M11.7586 4.38574H9.74888V6.39549H11.7586V4.38574Z" fill="#585857"/>
<path d="M8.99523 4.38574H6.98549V6.39549H8.99523V4.38574Z" fill="#67C1BF"/>
<path d="M6.23183 4.38574H4.22208V6.39549H6.23183V4.38574Z" fill="#67C1BF"/>
<path d="M3.46843 4.38574H1.45868V6.39549H3.46843V4.38574Z" fill="#67C1BF"/>
<path d="M11.7586 1.62207H9.74888V3.63181H11.7586V1.62207Z" fill="#585857"/>
<path d="M8.99523 1.62207H6.98549V3.63181H8.99523V1.62207Z" fill="#67C1BF"/>
<path d="M6.23183 1.62207H4.22208V3.63181H6.23183V1.62207Z" fill="#67C1BF"/>
<path d="M70.5413 9.15869V21.7191C70.5413 22.9752 69.7877 24.2313 68.2803 24.2313H61.6233V21.2167H65.7682C66.3964 21.2167 66.5218 20.9655 66.5218 20.463V19.584H63.1306C61.6233 19.584 60.8696 18.3279 60.8696 17.0718V9.16108L64.8891 9.15917V16.3186C64.8891 16.9465 65.1404 17.0723 65.6428 17.0723H66.5218V9.15917H70.5413V9.15869Z" fill="#282626"/>
<path d="M51.7004 9.15869C50.1931 9.15869 49.4395 10.4148 49.4395 11.6709V24.2304H53.4585L53.4604 17.9513H55.0912V24.2313H59.1106V9.15869H51.7004ZM55.0916 15.4387H53.4589V12.4241C53.4589 11.7962 53.7102 11.6737 54.2126 11.6737L55.0916 11.6704V15.4387Z" fill="#282626"/>
<path d="M47.6809 19.2069V24.2313H43.6614V17.9513H42.7824C42.28 17.9513 42.0288 18.0772 42.0288 18.705V24.2294H38.0093L38.0112 19.2074C38.0112 17.9513 38.6376 16.8211 39.6424 16.6924C38.6376 16.5699 38.0097 15.4391 38.0112 14.183L38.0093 9.15868H42.0288V15.4387H42.9078C43.4102 15.4387 43.6614 15.3133 43.6614 14.685V9.1582H47.6809V14.1826C47.6824 15.4387 47.0531 16.5689 46.0483 16.6919C47.0531 16.8201 47.6828 17.9508 47.6809 19.2069Z" fill="#282626"/>
<path d="M33.3624 15.4387H35.8722V17.9509H33.3624V21.2091L36.2512 21.2167V24.2308H29.343V9.16155L36.2512 9.15869V12.1728H33.3624V15.4387Z" fill="#282626"/>
<path d="M25.3235 9.15918L18.4152 9.15966V24.2299H22.4333V20.2118H25.3235C26.8308 20.2118 27.5844 18.9557 27.5844 17.6996V11.6709C27.5844 10.4148 26.8308 9.15823 25.3235 9.15918ZM24.0674 16.9465C24.0674 17.5748 23.8161 17.7001 23.3137 17.7001H22.4342C22.4328 17.6992 22.4328 11.6714 22.4328 11.6714H23.3132C23.8157 11.6714 24.0669 11.7972 24.0669 12.425L24.0674 16.9465Z" fill="#282626"/>
</g>
</g>
<defs>
<clipPath id="clip0_8_64">
<rect width="72" height="25.6271" fill="white"/>
</clipPath>
<clipPath id="clip1_8_64">
<rect width="91.5254" height="51.4861" fill="white" transform="translate(-9.76271 -11.5933)"/>
</clipPath>
</defs>
</svg>
