<svg width="30" height="30" viewBox="0 0 30 30" fill="none" xmlns="http://www.w3.org/2000/svg">
<g clip-path="url(#clip0_27_2828)">
<path d="M15 21.3293C15.5545 21.3293 16.0039 20.8799 16.0039 20.3254C16.0039 19.771 15.5545 19.3215 15 19.3215C14.4456 19.3215 13.9962 19.771 13.9962 20.3254C13.9962 20.8799 14.4456 21.3293 15 21.3293Z" fill="#A80055"/>
<path d="M15 10.6782C15.5545 10.6782 16.0039 10.2287 16.0039 9.6743C16.0039 9.11987 15.5545 8.67041 15 8.67041C14.4456 8.67041 13.9962 9.11987 13.9962 9.6743C13.9962 10.2287 14.4456 10.6782 15 10.6782Z" fill="#A80055"/>
<path d="M29.1913 0.809473C28.67 0.287461 27.9764 0 27.2383 0H16.7214C15.9837 0 15.29 0.287344 14.7683 0.809121L0.809238 14.7682C0.287344 15.29 0 15.9836 0 16.7212C0 17.4589 0.287461 18.1525 0.809238 18.6739L11.3259 29.1906C11.8475 29.7125 12.5411 30 13.2787 30C14.0164 30 14.71 29.7127 15.2318 29.1908L29.1909 15.2317C29.7127 14.71 30 14.0163 30 13.2786V2.7617C30 2.02359 29.7125 1.32996 29.1913 0.809473ZM15.0001 6.91271C16.5229 6.91271 17.7618 8.15162 17.7618 9.67441C17.7618 11.1972 16.5229 12.4361 15.0001 12.4361C13.4773 12.4361 12.2384 11.1972 12.2384 9.67441C12.2384 8.15162 13.4773 6.91271 15.0001 6.91271ZM15.0001 23.0872C13.4773 23.0872 12.2384 21.8483 12.2384 20.3255C12.2384 18.8027 13.4773 17.5638 15.0001 17.5638C16.5229 17.5638 17.7618 18.8027 17.7618 20.3255C17.7618 21.8483 16.5229 23.0872 15.0001 23.0872ZM20.6484 15.8788H9.35168C8.86629 15.8788 8.47277 15.4853 8.47277 14.9999C8.47277 14.5146 8.86629 14.121 9.35168 14.121H20.6484C21.1338 14.121 21.5273 14.5146 21.5273 14.9999C21.5273 15.4853 21.1339 15.8788 20.6484 15.8788ZM24.4141 6.46482C23.9289 6.46482 23.5352 6.07107 23.5352 5.58592C23.5352 5.10076 23.9289 4.70701 24.4141 4.70701C24.8992 4.70701 25.293 5.10076 25.293 5.58592C25.293 6.07107 24.8992 6.46482 24.4141 6.46482Z" fill="#A80055"/>
</g>
<defs>
<clipPath id="clip0_27_2828">
<rect width="30" height="30" fill="white"/>
</clipPath>
</defs>
</svg>
