<svg width="18" height="19" viewBox="0 0 18 19" fill="none" xmlns="http://www.w3.org/2000/svg">
<g clip-path="url(#clip0_1102_3436)">
<path d="M18 10.1C16.9 10.1 15.7 10.1 14.6 10.1C14.6 9.70003 14.6 9.30002 14.6 8.90002C15.7 8.90002 16.9 8.90002 18 8.90002C18 9.30002 18 9.70003 18 10.1Z" fill="#A80055"/>
<path d="M9.59999 0.5C9.59999 1.6 9.59999 2.8 9.59999 3.9C9.09999 3.9 8.69999 3.9 8.29999 3.9C8.29999 2.7 8.29999 1.6 8.29999 0.5C8.69999 0.5 9.09999 0.5 9.59999 0.5Z" fill="#A80055"/>
<path d="M8.89998 14.4C6.19998 14.4 4.09998 12.2 4.09998 9.60005C4.09998 6.90005 6.29998 4.80005 8.99998 4.80005C11.7 4.80005 13.8 7.00005 13.8 9.70005C13.7 12.3 11.5 14.4 8.89998 14.4Z" fill="#A80055"/>
<path d="M3.3 8.90002C3.3 9.30002 3.3 9.70002 3.3 10.2C2.2 10.2 1.1 10.2 0 10.2C0 9.80002 0 9.40002 0 8.90002C1.1 8.90002 2.2 8.90002 3.3 8.90002Z" fill="#A80055"/>
<path d="M2.09998 3.60005C2.39998 3.30005 2.69998 3.00005 2.89998 2.80005C3.69998 3.60005 4.39998 4.40005 5.19998 5.20005C5.09998 5.40005 4.69998 5.70005 4.49998 5.90005C3.69998 5.20005 2.89998 4.40005 2.09998 3.60005Z" fill="#A80055"/>
<path d="M13.3 5.89995C13.1 5.69995 12.8 5.39995 12.6 5.09995C13.4 4.29995 14.1 3.59995 14.9 2.69995C15.1 2.99995 15.4 3.29995 15.6 3.59995C14.9 4.39995 14.1 5.09995 13.3 5.89995Z" fill="#A80055"/>
<path d="M4.60001 13.2C4.80001 13.4 5.10001 13.7 5.30001 13.9C4.50001 14.7 3.80001 15.5 3.00001 16.3C2.80001 16 2.50001 15.7 2.20001 15.5C3.00001 14.8 3.80001 14 4.60001 13.2Z" fill="#A80055"/>
<path d="M12.5 13.9C12.8 13.6 13 13.4 13.3 13.1C14.1 13.9 14.9 14.7 15.7 15.4C15.4 15.7 15.1 15.9 14.8 16.2C14.1 15.5 13.3 14.7 12.5 13.9Z" fill="#A80055"/>
<path d="M8.29999 15.2C8.69999 15.2 9.09999 15.2 9.49999 15.2C9.49999 16.3 9.49999 17.4 9.49999 18.5C9.09999 18.5 8.69999 18.5 8.29999 18.5C8.29999 17.4 8.29999 16.3 8.29999 15.2Z" fill="#A80055"/>
</g>
<defs>
<clipPath id="clip0_1102_3436">
<rect width="18" height="18" fill="white" transform="translate(0 0.5)"/>
</clipPath>
</defs>
</svg>
