<svg width="35" height="35" fill="none" xmlns="http://www.w3.org/2000/svg"><g clip-path="url(#clip0_771_590)" fill="#4F4F4F"><path d="M2.275 13.897l5.982-6.574a3.045 3.045 0 015.077 1.325 3.047 3.047 0 014.774 1.59 3.049 3.049 0 014.765 1.56l2.819-2.819a3.045 3.045 0 014.306 4.307l-10.83 10.83 6.424 1.01a3.564 3.564 0 013.045 3.51 2.39 2.39 0 01-2.387 2.387h-15a8.692 8.692 0 01-6.188-2.563L2.56 25.957A8.677 8.677 0 010 19.778c0-2.18.808-4.268 2.275-5.881zm1.41 10.935l2.502 2.503a7.112 7.112 0 005.062 2.097H26.25c.44 0 .796-.357.796-.796 0-.967-.723-1.799-1.691-1.937l-7.979-1.254a.796.796 0 01-.439-1.348l11.937-11.936a1.455 1.455 0 00-2.057-2.057l-7.96 7.96a.796.796 0 11-1.123-1.127l3.25-3.25a1.452 1.452 0 00-.01-2.057 1.452 1.452 0 00-2.047 0l-3.252 3.251a.796.796 0 11-1.123-1.126l1.66-1.66a1.452 1.452 0 00-.01-2.056 1.452 1.452 0 00-2.048 0l-1.667 1.667-.002.002-.001.001-.002.002-.001.001h-.002l-.001.002a.794.794 0 01-1.11-1.141l.07-.068c.273-.274.424-.638.424-1.025 0-.386-.15-.75-.433-1.032-.566-.564-1.482-.562-2.022-.027l-5.956 6.546a7.143 7.143 0 00-1.86 4.811 7.1 7.1 0 002.094 5.055z"/><path d="M21.325 8.198a7.172 7.172 0 016.516-4.22c3.947 0 7.159 3.211 7.159 7.158 0 2.8-1.658 5.359-4.22 6.518a.8.8 0 01-1.054-.397.798.798 0 01.398-1.054 5.579 5.579 0 003.285-5.067 5.574 5.574 0 00-5.568-5.568 5.579 5.579 0 00-5.067 3.285.795.795 0 11-1.45-.655z"/></g><defs><clipPath id="clip0_771_590"><path fill="#fff" transform="matrix(-1 0 0 1 35 0)" d="M0 0h35v35H0z"/></clipPath></defs></svg>