<?xml version="1.0" encoding="utf-8"?>
<!-- Generator: Adobe Illustrator 18.0.0, SVG Export Plug-In . SVG Version: 6.00 Build 0)  -->
<!DOCTYPE svg PUBLIC "-//W3C//DTD SVG 1.1//EN" "http://www.w3.org/Graphics/SVG/1.1/DTD/svg11.dtd">
<svg version="1.1" id="Слой_1" xmlns="http://www.w3.org/2000/svg" xmlns:xlink="http://www.w3.org/1999/xlink" x="0px" y="0px"
	 width="84px" height="25px" viewBox="0 0 84 25" enable-background="new 0 0 84 25" xml:space="preserve">
<path fill="#FFFFFF" d="M14.3,14.5c0,2.4-0.1,4.1-0.2,5.2c-0.1,1-0.4,1.9-1,2.7c-0.6,0.9-1.4,1.5-2.4,1.9c-1,0.4-2.2,0.7-3.5,0.7
	s-2.4-0.2-3.4-0.6c-1-0.4-1.8-1-2.5-1.9c-0.6-0.9-1-1.7-1.1-2.7S0,17,0,14.6v-4.1c0-2.4,0.1-4.1,0.2-5.2c0.1-1,0.4-1.9,1-2.7
	s1.4-1.5,2.4-1.9S5.8,0,7.1,0s2.4,0.2,3.4,0.6s1.8,1,2.5,1.9c0.6,0.9,1,1.7,1.1,2.7c0.1,1,0.2,2.7,0.2,5.2V14.5L14.3,14.5z M8.1,6.6
	c0-1.1-0.1-1.8-0.2-2.1C7.8,4.1,7.6,4,7.1,4C6.8,4,6.5,4.1,6.4,4.4c-0.2,0.3-0.3,1-0.3,2.2v11.2c0,1.4,0.1,2.2,0.2,2.6
	c0.1,0.3,0.3,0.5,0.8,0.5s0.7-0.2,0.8-0.6C7.9,19.9,8,19,8,17.6L8.1,6.6L8.1,6.6z M47.2,0.4v24.1h-6.2V14.4h-1.8v10.1H33V0.4h6.3V9
	h1.8V0.4L47.2,0.4L47.2,0.4z M60.6,0.4l3.6,24.1h-6.4l-0.3-4.3h-2.2l-0.3,4.3h-6.4l3.2-24.1L60.6,0.4L60.6,0.4z M57.3,15.9
	c-0.3-2.7-0.6-6.1-0.9-10.1c-0.6,4.6-1,8-1.2,10.1H57.3L57.3,15.9z M70.5,0.4h6.3c1.7,0,3,0.2,4,0.4c0.9,0.3,1.6,0.7,2.1,1.1
	c0.4,0.5,0.8,1.1,0.9,1.8C83.9,4.5,84,5.6,84,7.1v2.1c0,1.5-0.2,2.7-0.5,3.4c-0.3,0.7-0.9,1.2-1.7,1.6c-0.9,0.3-2,0.6-3.3,0.6h-1.6
	v9.7h-6.3V0.4L70.5,0.4z M76.8,4.6v6.1c0.2,0,0.3,0,0.4,0c0.6,0,0.9-0.2,1.2-0.4c0.3-0.3,0.3-0.9,0.3-1.7v-2c0-0.9-0.1-1.4-0.3-1.6
	C78.2,4.6,77.6,4.6,76.8,4.6L76.8,4.6z M31.5,0.4l-3.6,10.8l3.9,13.1h-6.4l-2.6-10.3v10.3h-6.3V0.3h6.3v9.5l2.8-9.4H31.5L31.5,0.4z"
	/>
</svg>
