<svg width="22" height="22" fill="none" xmlns="http://www.w3.org/2000/svg"><path d="M17.427.647H4.577c-.774 0-1.402.628-1.402 1.4v17.908a1.4 1.4 0 001.401 1.398h12.85a1.4 1.4 0 001.399-1.398V2.048A1.4 1.4 0 0017.427.647zM8.213 18.684a.507.507 0 01-.508.508H6.139a.507.507 0 01-.508-.508v-1.385c0-.281.226-.508.508-.508h1.566c.281 0 .508.227.508.508v1.385zm0-3.883a.506.506 0 01-.508.505H6.139a.506.506 0 01-.508-.505v-1.388c0-.278.226-.504.508-.504h1.566c.281 0 .508.226.508.504v1.388zm0-3.882a.506.506 0 01-.508.505H6.139a.506.506 0 01-.508-.505V9.531c0-.278.226-.508.508-.508h1.566a.51.51 0 01.508.508v1.388zm4.076 7.765a.506.506 0 01-.505.508h-1.569a.506.506 0 01-.504-.508v-1.388c0-.278.226-.505.504-.505h1.57c.278 0 .504.227.504.505v1.388zm0-3.883a.505.505 0 01-.505.505h-1.569a.505.505 0 01-.504-.505v-1.388c0-.278.226-.504.504-.504h1.57c.278 0 .504.226.504.504v1.388zm0-3.882a.505.505 0 01-.505.505h-1.569a.505.505 0 01-.504-.505V9.531c0-.278.226-.508.504-.508h1.57c.278 0 .504.23.504.508v1.388zm4.08 7.765a.506.506 0 01-.505.508h-1.569a.506.506 0 01-.505-.508v-1.388c0-.278.227-.505.505-.505h1.57c.277 0 .504.227.504.505v1.388zm0-3.883a.505.505 0 01-.505.505h-1.569a.505.505 0 01-.505-.505v-1.388c0-.278.227-.504.505-.504h1.57c.277 0 .504.226.504.504v1.388zm0-3.882a.505.505 0 01-.505.505h-1.569a.505.505 0 01-.505-.505V9.531c0-.278.227-.508.505-.508h1.57c.277 0 .504.23.504.508v1.388zm.514-4.82a.787.787 0 01-.786.786H5.903a.787.787 0 01-.786-.787V3.374c0-.433.352-.783.786-.783h10.194c.434 0 .786.35.786.783v2.724z" fill="#A80055"/></svg>