<svg width="92" height="91" fill="none" xmlns="http://www.w3.org/2000/svg"><path d="M80.125 34.322h-5.688V48.54c0 7.852-6.367 14.22-14.218 14.22H34.625v5.687c0 6.282 5.093 11.375 11.375 11.375h17.063L75.46 90.145a2.844 2.844 0 004.664-2.19v-8.133c6.282 0 11.375-5.093 11.375-11.375v-22.75c0-6.282-5.093-11.375-11.375-11.375z" fill="#A80055" opacity=".4"/><path d="M57.375.197h-45.5C5.593.197.5 5.29.5 11.572v34.125c0 6.282 5.093 11.375 11.375 11.375v10.891a2.845 2.845 0 004.692 2.162l15.214-13.053h25.594c6.282 0 11.375-5.093 11.375-11.375V11.572C68.75 5.29 63.657.197 57.375.197zM21.572 32.644c-.25.275-.537.515-.853.71-.306.209-.63.39-.967.541a7.562 7.562 0 01-1.08.313c-.365.08-.737.117-1.11.114a5.686 5.686 0 01-5.687-5.688 5.688 5.688 0 016.797-5.687c.367.077.728.182 1.08.313a4.6 4.6 0 01.967.54c.309.195.595.424.853.682a5.694 5.694 0 011.678 4.152 5.675 5.675 0 01-1.678 4.01zm17.063 0a5.678 5.678 0 01-4.01 1.678c-.37.042-.74.042-1.11 0a7.575 7.575 0 01-1.08-.313 6.33 6.33 0 01-.967-.54 5.167 5.167 0 01-.881-.711 5.688 5.688 0 01-1.65-4.124 4.817 4.817 0 010-1.109c.078-.367.182-.728.313-1.08.142-.345.322-.669.54-.967.203-.313.431-.608.683-.882.274-.252.57-.48.882-.682.299-.219.624-.4.967-.54a7.46 7.46 0 011.194-.427 5.688 5.688 0 016.797 5.687 5.692 5.692 0 01-1.65 4.01h-.028zm17.062 0c-.25.275-.537.515-.853.71-.306.209-.63.39-.967.541a7.562 7.562 0 01-1.08.313c-.365.08-.737.117-1.11.114A5.686 5.686 0 0146 28.634a5.688 5.688 0 016.797-5.687c.367.077.728.182 1.08.313a4.6 4.6 0 01.967.54c.309.195.595.424.853.682a5.694 5.694 0 011.678 4.152 5.675 5.675 0 01-1.678 4.01z" fill="#A80055"/></svg>