<svg width="72" height="26" fill="none" xmlns="http://www.w3.org/2000/svg"><g clip-path="url(#clip0_8_64)"><g clip-path="url(#clip1_8_64)"><path d="M11.759 12.675h-2.01v2.01h2.01v-2.01zm-2.764 0h-2.01v2.01h2.01v-2.01zm5.527-2.762h-2.01v2.01h2.01v-2.01zm-2.763 0h-2.01v2.01h2.01v-2.01zm-2.764 0h-2.01v2.01h2.01v-2.01zm-2.763 0h-2.01v2.01h2.01v-2.01z" fill="#E50141"/><path d="M14.522 7.149h-2.01v2.01h2.01v-2.01zm-2.763 0h-2.01v2.01h2.01v-2.01z" fill="#585857"/><path d="M8.995 7.149h-2.01v2.01h2.01v-2.01zm-2.763 0h-2.01v2.01h2.01v-2.01zm-2.764 0h-2.01v2.01h2.01v-2.01z" fill="#67C1BF"/><path d="M14.522 4.386h-2.01v2.01h2.01v-2.01zm-2.763 0h-2.01v2.01h2.01v-2.01z" fill="#585857"/><path d="M8.995 4.386h-2.01v2.01h2.01v-2.01zm-2.763 0h-2.01v2.01h2.01v-2.01zm-2.764 0h-2.01v2.01h2.01v-2.01z" fill="#67C1BF"/><path d="M11.759 1.622h-2.01v2.01h2.01v-2.01z" fill="#585857"/><path d="M8.995 1.622h-2.01v2.01h2.01v-2.01zm-2.763 0h-2.01v2.01h2.01v-2.01z" fill="#67C1BF"/><path d="M70.541 9.159v12.56c0 1.256-.753 2.512-2.26 2.512h-6.658v-3.014h4.145c.628 0 .754-.252.754-.754v-.879H63.13c-1.508 0-2.261-1.256-2.261-2.512v-7.91l4.02-.003v7.16c0 .628.25.753.753.753h.879V9.16h4.02zm-18.841 0c-1.507 0-2.26 1.256-2.26 2.512v12.56h4.019l.001-6.28h1.631v6.28h4.02V9.16H51.7zm3.392 6.28h-1.633v-3.015c0-.628.251-.75.754-.75l.879-.004v3.769zm-7.412 3.768v5.024h-4.019v-6.28h-.879c-.502 0-.753.126-.753.754v5.524h-4.02l.002-5.022c0-1.256.627-2.386 1.631-2.515-1.004-.122-1.632-1.253-1.63-2.509l-.003-5.024h4.02v6.28h.879c.502 0 .753-.126.753-.754V9.158h4.02v5.025c.001 1.256-.628 2.386-1.633 2.509 1.005.128 1.635 1.259 1.633 2.515zm-14.318-3.768h2.51v2.512h-2.51v3.258l2.89.008v3.014h-6.909V9.16l6.908-.002v3.014h-2.889v3.266zM25.323 9.16h-6.908v15.07h4.018v-4.018h2.89c1.508 0 2.261-1.256 2.261-2.512v-6.03c0-1.255-.753-2.512-2.26-2.51zm-1.256 7.787c0 .628-.25.753-.753.753h-.88l-.001-6.029h.88c.503 0 .754.126.754.754v4.521z" fill="#282626"/></g></g><defs><clipPath id="clip0_8_64"><path fill="#fff" d="M0 0h72v25.627H0z"/></clipPath><clipPath id="clip1_8_64"><path fill="#fff" transform="translate(-9.763 -11.593)" d="M0 0h91.525v51.486H0z"/></clipPath></defs></svg>