<svg width="30" height="30" fill="none" xmlns="http://www.w3.org/2000/svg"><g clip-path="url(#clip0_27_2828)" fill="#A80055"><path d="M15 21.33a1.004 1.004 0 100-2.008 1.004 1.004 0 000 2.007zm0-10.652a1.004 1.004 0 100-2.008 1.004 1.004 0 000 2.008z"/><path d="M29.191.81A2.742 2.742 0 0027.238 0H16.721c-.737 0-1.431.287-1.953.81L.81 14.767A2.744 2.744 0 000 16.721c0 .738.287 1.431.81 1.953L11.325 29.19a2.745 2.745 0 001.953.809c.737 0 1.431-.287 1.953-.81L29.19 15.233a2.744 2.744 0 00.809-1.953V2.762c0-.738-.288-1.432-.809-1.953zm-14.19 6.103a2.765 2.765 0 012.76 2.761 2.765 2.765 0 01-2.76 2.762 2.765 2.765 0 01-2.763-2.762A2.765 2.765 0 0115 6.913zm0 16.174a2.765 2.765 0 01-2.763-2.761A2.765 2.765 0 0115 17.564a2.765 2.765 0 012.762 2.762A2.765 2.765 0 0115 23.087zm5.647-7.208H9.352a.879.879 0 010-1.758h11.296a.879.879 0 010 1.758zm3.766-9.414a.88.88 0 110-1.759.88.88 0 010 1.759z"/></g><defs><clipPath id="clip0_27_2828"><path fill="#fff" d="M0 0h30v30H0z"/></clipPath></defs></svg>