<svg width="71" height="98" fill="none" xmlns="http://www.w3.org/2000/svg"><path d="M66.25 33.373l-.904.429.903-.429zm-8.632 64.004l9.177-7.009-10.658-4.443 1.481 11.452zM1 1.074l-.12.993h.007a30.938 30.938 0 01.575.076c.386.053.956.134 1.686.246 1.461.225 3.565.575 6.13 1.076 5.13 1.001 12.094 2.604 19.433 5.008 7.344 2.406 15.033 5.604 21.63 9.785 6.605 4.185 12.048 9.31 15.005 15.544l1.807-.857c-3.179-6.701-8.96-12.08-15.74-16.376-6.788-4.3-14.644-7.56-22.079-9.996-7.44-2.437-14.487-4.059-19.673-5.071A156.915 156.915 0 003.452.412a104.524 104.524 0 00-2.33-.33c-.001 0-.002 0-.122.992zm64.346 32.728c3.78 7.967 3.784 18.34 2.155 28.487-1.624 10.116-4.845 19.847-7.353 26.422l1.868.713c2.533-6.64 5.806-16.513 7.46-26.818 1.65-10.276 1.718-21.142-2.323-29.661l-1.807.857z" fill="#A80055"/></svg>