<svg width="30" height="30" viewBox="0 0 30 30" fill="none" xmlns="http://www.w3.org/2000/svg">
<g clip-path="url(#clip0_95_681)">
<path d="M25.6066 4.39342C22.7735 1.56029 19.0066 0 15 0C10.9934 0 7.22648 1.56029 4.39336 4.39342C1.56023 7.22654 0 10.9934 0 15C0 19.0066 1.56023 22.7735 4.39336 25.6066C7.22648 28.4396 10.9934 30 15 30C19.0066 30 22.7735 28.4397 25.6066 25.6066C28.4398 22.7735 30 19.0066 30 15C30 10.9934 28.4398 7.22648 25.6066 4.39342ZM15 27.0558C8.35236 27.0558 2.94422 21.6476 2.94422 15C2.94422 14.9891 2.94457 14.9783 2.94463 14.9675C2.94463 14.9648 2.94422 14.9621 2.94422 14.9594C2.94422 14.9548 2.9448 14.9503 2.94492 14.9457C2.97416 8.37779 8.28199 3.03422 14.8362 2.94633C14.8499 2.94568 14.8635 2.94428 14.8774 2.94428C14.8857 2.94428 14.8938 2.94527 14.902 2.94551C14.9347 2.94527 14.9673 2.94428 15.0001 2.94428C21.6477 2.94428 27.0558 8.35248 27.0558 15.0001C27.0558 21.6476 21.6476 27.0558 15 27.0558Z" fill="#A80055"/>
<path d="M24.1574 15.7242C23.6672 15.7242 23.2699 15.3268 23.2699 14.8367C23.2699 14.3465 23.6672 13.9491 24.1574 13.9491H25.2273C24.7248 9.02274 20.7295 5.11472 15.7649 4.7478V5.67915C15.7649 6.16935 15.3675 6.56673 14.8773 6.56673C14.3871 6.56673 13.9897 6.16935 13.9897 5.67915V4.76901C9.09855 5.24831 5.20248 9.16952 4.76168 14.0717H5.7198C6.21 14.0717 6.60738 14.4691 6.60738 14.9593C6.60738 15.4495 6.21 15.8469 5.7198 15.8469H4.75441C5.16252 20.828 9.1367 24.8143 14.1124 25.2419V24.1167C14.1124 23.6265 14.5098 23.2292 15 23.2292C15.4902 23.2292 15.8876 23.6265 15.8876 24.1167V25.2419C20.904 24.8108 24.9024 20.7624 25.2548 15.7242H24.1574ZM18.593 12.6622L15.6277 15.6276C15.5452 15.71 15.4474 15.7754 15.3397 15.82C15.232 15.8646 15.1166 15.8876 15.0001 15.8876C14.8835 15.8876 14.7681 15.8646 14.6604 15.82C14.5527 15.7754 14.4549 15.71 14.3725 15.6276L9.21076 10.4659C8.86412 10.1193 8.86412 9.55735 9.21076 9.21071C9.55734 8.86407 10.1193 8.86407 10.466 9.21071L15.0001 13.7448L17.3379 11.407C17.6845 11.0604 18.2464 11.0604 18.5931 11.407C18.9396 11.7536 18.9396 12.3157 18.593 12.6622Z" fill="#A80055"/>
</g>
<defs>
<clipPath id="clip0_95_681">
<rect width="30" height="30" fill="white"/>
</clipPath>
</defs>
</svg>
