<svg width="30" height="30" viewBox="0 0 30 30" fill="none" xmlns="http://www.w3.org/2000/svg">
<g clip-path="url(#clip0_95_720)">
<path d="M6.61764 17.8635C6.19032 17.8635 5.84268 18.2112 5.84268 18.6383C5.84268 19.0657 6.19032 19.4131 6.61764 19.4131C7.04479 19.4131 7.39243 19.0656 7.39243 18.6383C7.39243 18.2112 7.04473 17.8635 6.61764 17.8635ZM23.3824 12.5869C23.8097 12.5869 24.1573 12.2394 24.1573 11.8122C24.1573 11.385 23.8097 11.0374 23.3824 11.0374C22.9552 11.0374 22.6076 11.3851 22.6076 11.8122C22.6076 12.2395 22.9553 12.5869 23.3824 12.5869ZM22.5558 17.1783C22.1288 17.1783 21.7811 17.5259 21.7811 17.953C21.7811 18.3803 22.1288 18.7278 22.5558 18.7278C22.9832 18.7278 23.3309 18.3803 23.3309 17.953C23.3309 17.5257 22.9832 17.1783 22.5558 17.1783ZM11.1427 22.384C10.7155 22.384 10.3679 22.7315 10.3679 23.1587C10.3679 23.5859 10.7156 23.9335 11.1427 23.9335C11.57 23.9335 11.9174 23.5858 11.9174 23.1587C11.9174 22.7314 11.57 22.384 11.1427 22.384ZM19.5346 4.80493C19.1073 4.80493 18.7596 5.15239 18.7596 5.57972C18.7596 6.00681 19.1073 6.35444 19.5346 6.35444C19.9617 6.35444 20.3094 6.00681 20.3094 5.57972C20.3091 5.15239 19.9617 4.80493 19.5346 4.80493ZM7.44417 12.8217C7.87126 12.8217 8.21895 12.4741 8.21895 12.047C8.21895 11.6197 7.87126 11.2722 7.44417 11.2722C7.01684 11.2722 6.66915 11.6197 6.66915 12.047C6.66915 12.4741 7.01684 12.8217 7.44417 12.8217Z" fill="#A80055"/>
<path d="M22.5558 20.4856C21.698 20.4856 20.9388 20.0565 20.4803 19.4016C20.1929 18.9908 20.0235 18.4916 20.0235 17.953C20.0235 17.0442 20.5051 16.2458 21.2263 15.7988C21.6255 15.551 22.086 15.42 22.5558 15.4205C23.6435 15.4205 24.573 16.1096 24.9309 17.0741H29.8576C29.9522 16.3868 29.9998 15.6938 30 15C30 10.9934 28.4397 7.22648 25.6066 4.39336C22.7735 1.56035 19.0066 0 15 0C14.2886 8.39896e-05 13.5781 0.0500109 12.8736 0.149414V18.6383C12.8736 19.1238 12.48 19.5172 11.9947 19.5172H8.99279C8.63455 20.4817 7.70508 21.1709 6.61764 21.1709C5.221 21.1709 4.08486 20.0347 4.08486 18.6383C4.08486 17.2419 5.221 16.1057 6.61764 16.1057C7.2668 16.1057 7.85959 16.3515 8.30842 16.7548C8.61439 17.0294 8.84922 17.3742 8.99279 17.7594H11.1159V0.506074C10.5489 0.657042 9.99133 0.841546 9.44619 1.05861V6.44162C9.44619 6.92689 9.0525 7.32053 8.56728 7.32053C8.08184 7.32053 7.68838 6.92689 7.68838 6.44162V1.89586C7.31455 2.10533 6.62197 2.55141 6.62197 2.55141V7.61361C6.62197 8.09906 6.22857 8.49252 5.74307 8.49252C5.25791 8.49252 4.86416 8.09906 4.86416 7.61361V3.94318C4.64033 4.14228 4.60717 4.17961 4.39336 4.39336C2.48748 6.2993 1.15857 8.62816 0.492305 11.1681H5.06906C5.42707 10.2036 6.35648 9.51439 7.44416 9.51439C8.34574 9.51439 9.13834 9.98818 9.58717 10.6997C9.84202 11.1028 9.97712 11.5699 9.97676 12.0468C9.97676 12.9195 9.53291 13.6905 8.85938 14.1463C8.44166 14.4291 7.94864 14.5801 7.44416 14.5795C6.35648 14.5795 5.42701 13.8904 5.06906 12.9259H0.142383C0.0477652 13.6132 0.000193606 14.3062 0 15C0 19.0066 1.56029 22.7735 4.39336 25.6066C7.22648 28.4396 10.9934 30 15 30C15.6429 30 16.2851 29.9592 16.9228 29.878V11.6283C16.9228 11.1431 17.3163 10.7494 17.8017 10.7494H21.0844C21.4869 9.88242 22.3652 9.27955 23.3824 9.27955C24.779 9.27955 25.9149 10.4157 25.9149 11.8124C25.9149 13.2088 24.779 14.3449 23.3824 14.3449C22.7207 14.3449 22.1178 14.0895 21.6662 13.6727C21.3244 13.3575 21.0758 12.9544 20.9475 12.5075H18.6804V29.5475C19.3176 29.3873 19.9435 29.1849 20.5538 28.9416V22.899C20.5538 22.4137 20.9475 22.0201 21.4327 22.0201C21.9182 22.0201 22.3116 22.4137 22.3116 22.899V28.1043C22.8234 27.8177 23.3777 27.4468 23.3777 27.4468V21.7271C23.3777 21.2416 23.7715 20.8482 24.2566 20.8482C24.7421 20.8482 25.1355 21.2416 25.1355 21.7271V26.0566C25.3603 25.8571 25.3922 25.8211 25.6066 25.6066C27.5125 23.7008 28.8412 21.3719 29.5077 18.832H24.9309C24.5729 19.7965 23.6435 20.4857 22.5558 20.4857V20.4856ZM19.5346 8.1123C19.157 8.11269 18.7841 8.02815 18.4436 7.86492C18.3866 7.83737 18.3307 7.80766 18.276 7.77586L15.7771 9.86303V21.13C15.7771 21.4529 15.6001 21.7498 15.3159 21.9032L13.6498 22.8033C13.6663 22.9194 13.6753 23.038 13.6753 23.1588C13.6753 24.5552 12.5393 25.6914 11.1427 25.6914C9.74625 25.6914 8.61006 24.5552 8.61006 23.1588C8.61006 21.7621 9.74619 20.6262 11.1427 20.6262C11.5202 20.6258 11.893 20.7102 12.2335 20.8734C12.4433 20.9743 12.6383 21.1035 12.813 21.2575L14.0193 20.6058V9.45193C14.0193 9.32328 14.0475 9.19619 14.102 9.07965C14.1565 8.9631 14.2359 8.85995 14.3347 8.77746L17.1483 6.4275C17.0513 6.1554 17.0018 5.86865 17.0019 5.57977C17.0019 4.18313 18.138 3.04717 19.5346 3.04717C20.931 3.04717 22.0672 4.18313 22.0672 5.57977C22.0669 6.97617 20.931 8.1123 19.5346 8.1123Z" fill="#A80055"/>
</g>
<defs>
<clipPath id="clip0_95_720">
<rect width="30" height="30" fill="white"/>
</clipPath>
</defs>
</svg>
