<svg width="30" height="30" viewBox="0 0 30 30" fill="none" xmlns="http://www.w3.org/2000/svg">
<g clip-path="url(#clip0_95_662)">
<path d="M29.7294 13.1126L15.5621 0.347996C15.4119 0.212718 15.217 0.137807 15.0148 0.137695C14.8127 0.137584 14.6177 0.212279 14.4674 0.34739L0.271088 13.1121C0.147939 13.2228 0.0612578 13.3682 0.022496 13.5292C-0.0162659 13.6901 -0.00528451 13.8591 0.0539894 14.0136C0.113263 14.1682 0.218041 14.3012 0.354479 14.395C0.490918 14.4888 0.652597 14.5389 0.818159 14.5389H3.23674L14.4616 4.54618C14.6125 4.40786 14.8098 4.33114 15.0145 4.33116C15.2192 4.33118 15.4165 4.40793 15.5674 4.54628L26.7913 14.5389H29.1816C29.3471 14.539 29.5087 14.4889 29.6452 14.3952C29.7816 14.3014 29.8864 14.1686 29.9458 14.0141C30.0051 13.8596 30.0162 13.6907 29.9775 13.5298C29.9389 13.3688 29.8524 13.2234 29.7294 13.1126Z" fill="#A80055"/>
<path d="M4.25018 15.8303V29.044C4.25021 29.2611 4.33643 29.4692 4.48988 29.6226C4.64333 29.7761 4.85145 29.8623 5.06847 29.8623H24.9602C25.1772 29.8623 25.3853 29.7761 25.5388 29.6226C25.6922 29.4692 25.7784 29.2611 25.7785 29.044V15.8303L15.0145 6.2594L4.25018 15.8303ZM10.8382 19.8494C11.0694 20.2468 11.386 20.791 11.386 21.7702C11.386 22.7494 11.0694 23.2937 10.8382 23.6912C10.6637 23.9909 10.5678 24.1559 10.5678 24.5831C10.5678 25.148 10.1099 25.606 9.54493 25.606C8.98008 25.606 8.5221 25.148 8.5221 24.5831C8.5221 23.6041 8.83877 23.0598 9.06998 22.6624C9.24432 22.3626 9.34049 22.1977 9.34049 21.7702C9.34049 21.3429 9.24432 21.1779 9.06998 20.8781C8.83877 20.4807 8.5221 19.9365 8.5221 18.9574C8.5221 17.9784 8.83877 17.4341 9.06998 17.0367C9.24443 16.7371 9.34049 16.5719 9.34049 16.1448C9.34049 15.5799 9.79837 15.122 10.3632 15.122C10.9282 15.122 11.386 15.5799 11.386 16.1448C11.386 17.1238 11.0694 17.668 10.8382 18.0656C10.6637 18.3652 10.5678 18.5302 10.5678 18.9574C10.5678 19.3847 10.6637 19.5497 10.8382 19.8494ZM19.1959 20.878C18.9647 20.4806 18.6481 19.9364 18.6481 18.9573C18.6481 17.9783 18.9647 17.434 19.1959 17.0366C19.3704 16.737 19.4663 16.5718 19.4663 16.1447C19.4663 15.5798 19.9243 15.1219 20.4892 15.1219C21.054 15.1219 21.512 15.5798 21.512 16.1447C21.512 17.1237 21.1953 17.6679 20.9641 18.0655C20.7897 18.3651 20.6937 18.5301 20.6937 18.9573C20.6937 19.3846 20.7897 19.5496 20.9641 19.8493C21.1953 20.2467 21.512 20.7909 21.512 21.7701C21.512 22.7493 21.1953 23.2936 20.9641 23.6911C20.7897 23.9908 20.6937 24.1558 20.6937 24.583C20.6937 25.1479 20.2357 25.6059 19.6709 25.6059C19.106 25.6059 18.6481 25.1479 18.6481 24.583C18.6481 23.604 18.9647 23.0597 19.1959 22.6623C19.3703 22.3625 19.4663 22.1976 19.4663 21.7701C19.4663 21.3428 19.3702 21.1778 19.1959 20.878ZM16.449 16.1448C16.449 17.1238 16.1323 17.668 15.9011 18.0656C15.7266 18.3652 15.6307 18.5302 15.6307 18.9574C15.6307 19.3847 15.7266 19.5497 15.9011 19.8494C16.1323 20.2468 16.449 20.791 16.449 21.7702C16.449 22.7494 16.1323 23.2937 15.9011 23.6912C15.7266 23.9909 15.6307 24.1559 15.6307 24.5831C15.6307 25.148 15.1727 25.606 14.6079 25.606C14.0429 25.606 13.585 25.148 13.585 24.5831C13.585 23.6041 13.9017 23.0598 14.1329 22.6624C14.3073 22.3626 14.4033 22.1977 14.4033 21.7702C14.4033 21.3429 14.3073 21.1779 14.1329 20.8781C13.9017 20.4807 13.585 19.9365 13.585 18.9574C13.585 17.9784 13.9017 17.4341 14.1329 17.0367C14.3074 16.7371 14.4033 16.5719 14.4033 16.1448C14.4033 15.5799 14.8613 15.122 15.4261 15.122C15.991 15.122 16.449 15.5799 16.449 16.1448Z" fill="#A80055"/>
</g>
<defs>
<clipPath id="clip0_95_662">
<rect width="30" height="30" fill="white"/>
</clipPath>
</defs>
</svg>
