<svg width="30" height="30" viewBox="0 0 30 30" fill="none" xmlns="http://www.w3.org/2000/svg">
<path d="M29.964 16.5005L27.6956 3.63569C27.4954 2.49991 26.5076 1.70081 25.393 1.70081C25.258 1.70081 5.52814 5.16727 5.52814 5.16727C4.2549 5.3918 3.40471 6.60598 3.62924 7.87922L3.84791 9.11948H21.6542C23.9132 9.11948 25.751 10.9573 25.751 13.2162V19.6204L28.0651 19.2124C29.3384 18.9879 30.1886 17.7737 29.964 16.5005ZM23.9952 20.5962H0V25.9582C0 27.2511 1.04813 28.2992 2.341 28.2992H21.6542C22.9471 28.2992 23.9952 27.2511 23.9952 25.9582V20.5962ZM6.96955 26.1901H2.98693C2.50213 26.1901 2.10908 25.797 2.10908 25.3122C2.10908 24.8274 2.50213 24.4344 2.98693 24.4344H6.96955C7.45436 24.4344 7.8474 24.8274 7.8474 25.3122C7.8474 25.797 7.45441 26.1901 6.96955 26.1901Z" fill="#A80055"/>
<path d="M0.00287109 13.1021H23.9923C23.9327 11.8622 22.9088 10.8752 21.6541 10.8752H2.341C1.08639 10.8752 0.0624023 11.8622 0.00287109 13.1021ZM0 14.8578H23.9952V18.8404H0V14.8578Z" fill="#A80055"/>
</svg>
