<svg width="30" height="30" viewBox="0 0 30 30" fill="none" xmlns="http://www.w3.org/2000/svg">
<path d="M15.0809 9.28467C11.9289 9.28467 9.36475 11.8488 9.36475 15.0005C9.36475 18.1525 11.9289 20.7166 15.0809 20.7166C18.2326 20.7166 20.7967 18.1525 20.7967 15.0005C20.7967 11.8488 18.2326 9.28467 15.0809 9.28467ZM18.4745 13.9241L14.3796 18.019C14.2979 18.1009 14.2008 18.1658 14.094 18.2101C13.9872 18.2544 13.8726 18.2771 13.757 18.277C13.6414 18.2771 13.5269 18.2544 13.4201 18.2102C13.3133 18.1659 13.2163 18.1009 13.1347 18.019L11.5698 16.4541C11.226 16.1106 11.226 15.5533 11.5698 15.2095C11.9133 14.8657 12.4707 14.8657 12.8145 15.2095L13.757 16.152L17.2298 12.6795C17.5734 12.3356 18.1307 12.3356 18.4745 12.6795C18.8183 13.023 18.8183 13.5804 18.4745 13.9241Z" fill="#A80055"/>
<path d="M27.8245 8.13976L27.8236 8.11644C27.81 7.80584 27.801 7.49507 27.7966 7.18421C27.7721 5.53005 26.4571 4.16177 24.8028 4.06937C21.3536 3.87683 18.6853 2.75213 16.4054 0.529906L16.386 0.511391C15.6423 -0.170464 14.5206 -0.170464 13.7767 0.511391L13.7572 0.529906C11.4773 2.75213 8.80904 3.87683 5.35981 4.06955C3.70571 4.16177 2.39052 5.53011 2.36603 7.18439C2.36173 7.49519 2.35274 7.8059 2.33907 8.11644L2.33767 8.17063C2.27058 11.6879 2.18726 16.0652 3.65163 20.0384C4.45688 22.2233 5.67633 24.1225 7.276 25.6837C9.09791 27.4617 11.4842 28.8732 14.3686 29.8789C14.4635 29.9119 14.5606 29.9384 14.6592 29.9581C14.7993 29.986 14.9403 30 15.0813 30C15.2223 30 15.3635 29.986 15.5034 29.9581C15.6023 29.9383 15.6998 29.9116 15.7952 29.8784C18.6761 28.8709 21.0599 27.4587 22.8802 25.681C24.4792 24.1194 25.6987 22.2196 26.5046 20.0343C27.9744 16.0492 27.8913 11.6636 27.8245 8.13976ZM15.0808 22.4769C10.9582 22.4769 7.60441 19.1231 7.60441 15.0005C7.60441 10.8778 10.9583 7.52405 15.0808 7.52405C19.2033 7.52405 22.5573 10.8778 22.5573 15.0005C22.5573 19.1231 19.2033 22.4769 15.0808 22.4769Z" fill="#A80055"/>
</svg>
